<?xml version="1.0" encoding="UTF-8"?>
<svg xmlns="http://www.w3.org/2000/svg" xmlns:xlink="http://www.w3.org/1999/xlink" width="50px" height="50px" viewBox="0 0 50 50" version="1.1">
<g id="surface1202">
<path style=" stroke:none;fill-rule:nonzero;fill:rgb(100%,100%,100%);fill-opacity:1;" d="M 35.773438 26.183594 L 30.757812 26.183594 C 30.621094 26.183594 30.507812 26.070312 30.507812 25.933594 C 30.507812 25.792969 30.621094 25.683594 30.757812 25.683594 L 35.773438 25.683594 C 35.910156 25.683594 36.023438 25.792969 36.023438 25.933594 C 36.023438 26.070312 35.910156 26.183594 35.773438 26.183594 Z M 37.214844 26.183594 L 36.492188 26.183594 C 36.351562 26.183594 36.242188 26.070312 36.242188 25.933594 C 36.242188 25.792969 36.351562 25.683594 36.492188 25.683594 L 37.214844 25.683594 C 37.351562 25.683594 37.464844 25.792969 37.464844 25.933594 C 37.464844 26.070312 37.351562 26.183594 37.214844 26.183594 Z M 39.242188 26.183594 L 37.96875 26.183594 C 37.828125 26.183594 37.71875 26.070312 37.71875 25.933594 C 37.71875 25.792969 37.828125 25.683594 37.96875 25.683594 L 39.242188 25.683594 C 39.378906 25.683594 39.492188 25.792969 39.492188 25.933594 C 39.492188 26.070312 39.378906 26.183594 39.242188 26.183594 Z M 38.226562 24.316406 L 33.421875 24.316406 C 33.28125 24.316406 33.171875 24.207031 33.171875 24.066406 C 33.171875 23.929688 33.28125 23.816406 33.421875 23.816406 L 38.226562 23.816406 C 38.367188 23.816406 38.476562 23.929688 38.476562 24.066406 C 38.476562 24.207031 38.367188 24.316406 38.226562 24.316406 Z M 32.554688 24.316406 L 32.265625 24.316406 C 32.125 24.316406 32.015625 24.207031 32.015625 24.066406 C 32.015625 23.929688 32.125 23.816406 32.265625 23.816406 L 32.554688 23.816406 C 32.691406 23.816406 32.804688 23.929688 32.804688 24.066406 C 32.804688 24.207031 32.691406 24.316406 32.554688 24.316406 Z M 31.367188 24.316406 L 30.636719 24.316406 C 30.5 24.316406 30.386719 24.207031 30.386719 24.066406 C 30.386719 23.929688 30.5 23.816406 30.636719 23.816406 L 31.367188 23.816406 C 31.503906 23.816406 31.617188 23.929688 31.617188 24.066406 C 31.617188 24.207031 31.503906 24.316406 31.367188 24.316406 Z M 36.945312 25.25 L 34.433594 25.25 C 34.296875 25.25 34.183594 25.136719 34.183594 25 C 34.183594 24.863281 34.296875 24.75 34.433594 24.75 L 36.945312 24.75 C 37.085938 24.75 37.195312 24.863281 37.195312 25 C 37.195312 25.136719 37.085938 25.25 36.945312 25.25 Z M 36.945312 25.25 "/>
<path style=" stroke:none;fill-rule:nonzero;fill:rgb(100%,100%,100%);fill-opacity:1;" d="M 36.945312 24.316406 L 36.316406 24.316406 C 36.179688 24.316406 36.066406 24.207031 36.066406 24.066406 C 36.066406 23.929688 36.179688 23.816406 36.316406 23.816406 L 36.945312 23.816406 C 37.085938 23.816406 37.195312 23.929688 37.195312 24.066406 C 37.195312 24.207031 37.085938 24.316406 36.945312 24.316406 Z M 33.707031 25.25 L 32.824219 25.25 C 32.6875 25.25 32.574219 25.136719 32.574219 25 C 32.574219 24.863281 32.6875 24.75 32.824219 24.75 L 33.707031 24.75 C 33.84375 24.75 33.957031 24.863281 33.957031 25 C 33.957031 25.136719 33.84375 25.25 33.707031 25.25 Z M 33.707031 25.25 "/>
<path style=" stroke:none;fill-rule:nonzero;fill:rgb(78.039216%,92.941176%,90.196078%);fill-opacity:1;" d="M 44.351562 28.414062 C 44.5 28.109375 44.632812 27.785156 44.75 27.445312 C 46.066406 23.558594 44.074219 18.90625 39.882812 17.78125 C 39.429688 12.089844 35.429688 8.183594 30.914062 7.519531 C 25.742188 6.757812 21.003906 10.039062 19.429688 15.261719 C 17.53125 14.589844 15.679688 14.671875 13.933594 15.691406 C 13.144531 16.054688 12.417969 16.597656 11.769531 17.304688 C 10.816406 18.347656 10.195312 19.664062 9.945312 21.054688 C 9.570312 21.113281 9.203125 21.171875 8.855469 21.296875 C 6.835938 22.019531 5.5625 23.511719 5.210938 25.757812 C 4.992188 27.15625 5.433594 28.550781 5.679688 29.113281 C 6.644531 31.34375 8.890625 32.605469 11.167969 32.269531 C 11.28125 32.253906 11.445312 32.304688 11.542969 32.386719 C 11.664062 35.945312 13.394531 39.09375 15.988281 40.894531 C 20.148438 43.78125 25.5 42.890625 28.878906 38.933594 C 30.324219 40.414062 32.046875 41.132812 34.070312 40.871094 C 36.082031 40.613281 37.640625 39.503906 38.78125 37.695312 C 39.308594 37.839844 39.808594 38.042969 40.324219 38.097656 C 42.34375 38.320312 43.984375 37.515625 45.191406 35.699219 C 45.652344 35.003906 46.085938 34.101562 46.085938 32.523438 C 46.085938 30.894531 45.441406 29.410156 44.351562 28.414062 Z M 44.351562 28.414062 "/>
<path style=" stroke:none;fill-rule:nonzero;fill:rgb(100%,100%,100%);fill-opacity:1;" d="M 9.183594 24.433594 L 4.167969 24.433594 C 4.03125 24.433594 3.917969 24.320312 3.917969 24.183594 C 3.917969 24.046875 4.03125 23.933594 4.167969 23.933594 L 9.183594 23.933594 C 9.320312 23.933594 9.433594 24.046875 9.433594 24.183594 C 9.433594 24.320312 9.324219 24.433594 9.183594 24.433594 Z M 10.625 24.433594 L 9.902344 24.433594 C 9.765625 24.433594 9.652344 24.320312 9.652344 24.183594 C 9.652344 24.046875 9.765625 23.933594 9.902344 23.933594 L 10.625 23.933594 C 10.761719 23.933594 10.875 24.046875 10.875 24.183594 C 10.875 24.320312 10.761719 24.433594 10.625 24.433594 Z M 12.652344 24.433594 L 11.378906 24.433594 C 11.242188 24.433594 11.128906 24.320312 11.128906 24.183594 C 11.128906 24.046875 11.242188 23.933594 11.378906 23.933594 L 12.652344 23.933594 C 12.789062 23.933594 12.902344 24.046875 12.902344 24.183594 C 12.902344 24.320312 12.789062 24.433594 12.652344 24.433594 Z M 12.652344 25.367188 L 7.84375 25.367188 C 7.707031 25.367188 7.59375 25.253906 7.59375 25.117188 C 7.59375 24.976562 7.707031 24.867188 7.84375 24.867188 L 12.652344 24.867188 C 12.789062 24.867188 12.902344 24.976562 12.902344 25.117188 C 12.902344 25.253906 12.789062 25.367188 12.652344 25.367188 Z M 6.976562 25.367188 L 6.6875 25.367188 C 6.550781 25.367188 6.4375 25.253906 6.4375 25.117188 C 6.4375 24.976562 6.550781 24.867188 6.6875 24.867188 L 6.976562 24.867188 C 7.117188 24.867188 7.226562 24.976562 7.226562 25.117188 C 7.226562 25.253906 7.117188 25.367188 6.976562 25.367188 Z M 5.789062 25.367188 L 5.0625 25.367188 C 4.925781 25.367188 4.8125 25.253906 4.8125 25.117188 C 4.8125 24.976562 4.925781 24.867188 5.0625 24.867188 L 5.789062 24.867188 C 5.929688 24.867188 6.039062 24.976562 6.039062 25.117188 C 6.039062 25.253906 5.929688 25.367188 5.789062 25.367188 Z M 10.359375 23.5 L 7.84375 23.5 C 7.707031 23.5 7.59375 23.390625 7.59375 23.25 C 7.59375 23.113281 7.707031 23 7.84375 23 L 10.359375 23 C 10.496094 23 10.609375 23.113281 10.609375 23.25 C 10.609375 23.390625 10.496094 23.5 10.359375 23.5 Z M 10.359375 22.570312 L 9.726562 22.570312 C 9.589844 22.570312 9.476562 22.457031 9.476562 22.320312 C 9.476562 22.179688 9.589844 22.070312 9.726562 22.070312 L 10.359375 22.070312 C 10.496094 22.070312 10.609375 22.179688 10.609375 22.320312 C 10.609375 22.457031 10.496094 22.570312 10.359375 22.570312 Z M 8.722656 26.296875 L 7.84375 26.296875 C 7.707031 26.296875 7.59375 26.1875 7.59375 26.046875 C 7.59375 25.910156 7.707031 25.796875 7.84375 25.796875 L 8.722656 25.796875 C 8.863281 25.796875 8.972656 25.910156 8.972656 26.046875 C 8.972656 26.1875 8.863281 26.296875 8.722656 26.296875 Z M 8.722656 26.296875 "/>
<path style=" stroke:none;fill-rule:nonzero;fill:rgb(99.215686%,98.823529%,93.72549%);fill-opacity:1;" d="M 15.402344 38.601562 C 15.402344 38.601562 21.25 38.601562 21.285156 38.601562 C 22.632812 38.601562 23.726562 37.507812 23.726562 36.15625 C 23.726562 34.980469 22.894531 33.996094 21.785156 33.765625 C 21.800781 33.660156 21.808594 33.558594 21.808594 33.449219 C 21.808594 32.054688 20.675781 30.917969 19.277344 30.917969 C 18.449219 30.917969 17.71875 31.316406 17.257812 31.929688 C 17.140625 30.371094 15.75 29.171875 14.121094 29.371094 C 12.933594 29.515625 11.949219 30.433594 11.730469 31.613281 C 11.660156 31.992188 11.667969 32.359375 11.738281 32.703125 C 11.417969 32.359375 10.964844 32.140625 10.460938 32.140625 C 9.535156 32.140625 8.777344 32.863281 8.71875 33.773438 C 8.300781 33.679688 7.84375 33.683594 7.359375 33.867188 C 6.441406 34.210938 5.785156 35.078125 5.746094 36.058594 C 5.691406 37.453125 6.808594 38.601562 8.191406 38.601562 C 8.292969 38.601562 8.664062 38.601562 8.75 38.601562 L 13.824219 38.601562 "/>
<path style=" stroke:none;fill-rule:nonzero;fill:rgb(27.843137%,16.862745%,16.078431%);fill-opacity:1;" d="M 21.285156 38.851562 L 15.402344 38.851562 C 15.265625 38.851562 15.152344 38.738281 15.152344 38.601562 C 15.152344 38.464844 15.265625 38.351562 15.402344 38.351562 L 21.285156 38.351562 C 22.492188 38.351562 23.476562 37.367188 23.476562 36.15625 C 23.476562 35.125 22.746094 34.21875 21.734375 34.007812 C 21.609375 33.984375 21.523438 33.863281 21.539062 33.734375 C 21.550781 33.640625 21.558594 33.546875 21.558594 33.449219 C 21.558594 32.191406 20.535156 31.167969 19.277344 31.167969 C 18.558594 31.167969 17.894531 31.5 17.457031 32.078125 C 17.394531 32.160156 17.285156 32.195312 17.1875 32.167969 C 17.089844 32.136719 17.015625 32.050781 17.007812 31.945312 C 16.957031 31.257812 16.621094 30.613281 16.085938 30.171875 C 15.542969 29.730469 14.855469 29.53125 14.152344 29.617188 C 13.070312 29.75 12.175781 30.589844 11.976562 31.660156 C 11.914062 31.992188 11.917969 32.324219 11.984375 32.652344 C 12.007812 32.761719 11.953125 32.871094 11.851562 32.925781 C 11.753906 32.976562 11.632812 32.953125 11.554688 32.871094 C 11.269531 32.5625 10.878906 32.390625 10.460938 32.390625 C 9.675781 32.390625 9.019531 33.007812 8.96875 33.789062 C 8.964844 33.863281 8.929688 33.929688 8.871094 33.972656 C 8.8125 34.015625 8.734375 34.03125 8.667969 34.015625 C 8.246094 33.921875 7.847656 33.949219 7.449219 34.101562 C 6.617188 34.414062 6.03125 35.203125 6 36.070312 C 5.976562 36.671875 6.191406 37.242188 6.609375 37.679688 C 7.027344 38.113281 7.589844 38.351562 8.191406 38.351562 L 13.824219 38.351562 C 13.964844 38.351562 14.074219 38.464844 14.074219 38.601562 C 14.074219 38.738281 13.964844 38.851562 13.824219 38.851562 L 8.191406 38.851562 C 7.449219 38.851562 6.761719 38.558594 6.246094 38.023438 C 5.734375 37.492188 5.46875 36.789062 5.496094 36.050781 C 5.539062 34.988281 6.253906 34.015625 7.273438 33.632812 C 7.675781 33.480469 8.085938 33.429688 8.507812 33.484375 C 8.695312 32.570312 9.507812 31.890625 10.460938 31.890625 C 10.800781 31.890625 11.136719 31.980469 11.429688 32.144531 C 11.429688 31.953125 11.449219 31.761719 11.484375 31.566406 C 11.722656 30.285156 12.796875 29.28125 14.09375 29.121094 C 14.9375 29.015625 15.753906 29.253906 16.398438 29.785156 C 16.902344 30.195312 17.257812 30.761719 17.417969 31.382812 C 17.925781 30.921875 18.578125 30.667969 19.277344 30.667969 C 20.808594 30.667969 22.058594 31.917969 22.058594 33.449219 C 22.058594 33.492188 22.054688 33.535156 22.054688 33.574219 C 23.179688 33.910156 23.976562 34.964844 23.976562 36.15625 C 23.976562 37.644531 22.769531 38.851562 21.285156 38.851562 Z M 21.285156 38.851562 "/>
<path style=" stroke:none;fill-rule:nonzero;fill:rgb(99.215686%,98.823529%,93.72549%);fill-opacity:1;" d="M 13.988281 33.21875 C 13.082031 33.15625 12.304688 33.78125 12.25 34.613281 C 12.242188 34.714844 12.246094 34.816406 12.261719 34.914062 C 12.085938 34.71875 11.828125 34.585938 11.53125 34.566406 C 10.988281 34.527344 10.519531 34.886719 10.453125 35.375 C 10.355469 35.347656 10.25 35.328125 10.144531 35.324219 C 9.355469 35.269531 8.671875 35.816406 8.625 36.542969 "/>
<path style=" stroke:none;fill-rule:nonzero;fill:rgb(27.843137%,16.862745%,16.078431%);fill-opacity:1;" d="M 8.625 36.667969 C 8.621094 36.667969 8.617188 36.667969 8.617188 36.667969 C 8.546875 36.664062 8.496094 36.605469 8.5 36.535156 C 8.554688 35.742188 9.289062 35.144531 10.152344 35.199219 C 10.222656 35.203125 10.289062 35.210938 10.359375 35.222656 C 10.496094 34.742188 10.984375 34.40625 11.539062 34.441406 C 11.753906 34.453125 11.953125 34.519531 12.121094 34.632812 C 12.121094 34.621094 12.121094 34.613281 12.125 34.605469 C 12.183594 33.707031 13.023438 33.027344 13.996094 33.09375 C 14.0625 33.097656 14.117188 33.15625 14.109375 33.226562 C 14.105469 33.292969 14.0625 33.347656 13.976562 33.34375 C 13.152344 33.285156 12.425781 33.859375 12.371094 34.621094 C 12.367188 34.710938 12.371094 34.804688 12.382812 34.898438 C 12.394531 34.953125 12.363281 35.003906 12.3125 35.027344 C 12.265625 35.050781 12.203125 35.039062 12.167969 35 C 12.007812 34.816406 11.777344 34.707031 11.523438 34.691406 C 11.046875 34.660156 10.636719 34.96875 10.578125 35.390625 C 10.570312 35.429688 10.550781 35.460938 10.523438 35.480469 C 10.492188 35.5 10.453125 35.503906 10.421875 35.496094 C 10.324219 35.46875 10.230469 35.453125 10.136719 35.449219 C 9.414062 35.398438 8.792969 35.894531 8.75 36.550781 C 8.746094 36.617188 8.691406 36.667969 8.625 36.667969 Z M 8.625 36.667969 "/>
<path style=" stroke:none;fill-rule:nonzero;fill:rgb(99.215686%,98.823529%,93.72549%);fill-opacity:1;" d="M 22.273438 34.050781 C 21.425781 33.652344 20.441406 33.933594 20.078125 34.683594 C 20.035156 34.777344 20 34.875 19.980469 34.972656 "/>
<path style=" stroke:none;fill-rule:nonzero;fill:rgb(27.843137%,16.862745%,16.078431%);fill-opacity:1;" d="M 19.980469 35.097656 C 19.96875 35.097656 19.960938 35.09375 19.949219 35.09375 C 19.882812 35.078125 19.839844 35.011719 19.855469 34.945312 C 19.882812 34.835938 19.917969 34.730469 19.964844 34.632812 C 20.359375 33.820312 21.417969 33.507812 22.328125 33.9375 C 22.390625 33.96875 22.417969 34.042969 22.386719 34.105469 C 22.355469 34.167969 22.28125 34.195312 22.21875 34.164062 C 21.433594 33.792969 20.523438 34.050781 20.191406 34.738281 C 20.152344 34.824219 20.121094 34.910156 20.101562 35 C 20.085938 35.058594 20.035156 35.097656 19.980469 35.097656 Z M 19.980469 35.097656 "/>
<path style=" stroke:none;fill-rule:nonzero;fill:rgb(0%,64.705882%,64.705882%);fill-opacity:1;" d="M 31.914062 37.386719 L 18.085938 37.386719 C 15.335938 37.386719 13.085938 35.136719 13.085938 32.386719 L 13.085938 18.5625 C 13.085938 15.8125 15.335938 13.5625 18.085938 13.5625 L 31.910156 13.5625 C 34.660156 13.5625 36.910156 15.8125 36.910156 18.5625 L 36.910156 32.386719 C 36.914062 35.136719 34.664062 37.386719 31.914062 37.386719 Z M 31.914062 37.386719 "/>
<path style=" stroke:none;fill-rule:nonzero;fill:rgb(27.843137%,16.862745%,16.078431%);fill-opacity:1;" d="M 31.914062 37.738281 L 18.085938 37.738281 C 15.136719 37.738281 12.738281 35.335938 12.738281 32.386719 L 12.738281 18.5625 C 12.738281 15.613281 15.136719 13.210938 18.085938 13.210938 L 31.910156 13.210938 C 34.863281 13.210938 37.261719 15.613281 37.261719 18.5625 L 37.261719 32.386719 C 37.261719 35.335938 34.863281 37.738281 31.914062 37.738281 Z M 18.085938 13.914062 C 15.523438 13.914062 13.4375 16 13.4375 18.5625 L 13.4375 32.386719 C 13.4375 34.949219 15.523438 37.035156 18.085938 37.035156 L 31.910156 37.035156 C 34.476562 37.035156 36.5625 34.949219 36.5625 32.386719 L 36.5625 18.5625 C 36.5625 16 34.476562 13.914062 31.910156 13.914062 Z M 18.085938 13.914062 "/>
<path style=" stroke:none;fill-rule:nonzero;fill:rgb(27.843137%,16.862745%,16.078431%);fill-opacity:1;" d="M 31.300781 35.871094 L 18.699219 35.871094 C 16.441406 35.871094 14.601562 34.035156 14.601562 31.777344 L 14.601562 19.171875 C 14.601562 16.914062 16.441406 15.078125 18.699219 15.078125 L 31.429688 15.078125 C 31.53125 15.078125 31.617188 15.160156 31.617188 15.265625 C 31.617188 15.367188 31.53125 15.453125 31.429688 15.453125 L 18.699219 15.453125 C 16.648438 15.453125 14.976562 17.121094 14.976562 19.171875 L 14.976562 31.777344 C 14.976562 33.828125 16.648438 35.496094 18.699219 35.496094 L 31.300781 35.496094 C 33.351562 35.496094 35.023438 33.828125 35.023438 31.777344 L 35.023438 24.71875 C 35.023438 24.613281 35.105469 24.53125 35.210938 24.53125 C 35.3125 24.53125 35.398438 24.613281 35.398438 24.71875 L 35.398438 31.777344 C 35.398438 34.035156 33.558594 35.871094 31.300781 35.871094 Z M 35.210938 23.773438 C 35.105469 23.773438 35.023438 23.6875 35.023438 23.585938 L 35.023438 22.070312 C 35.023438 21.96875 35.105469 21.882812 35.210938 21.882812 C 35.3125 21.882812 35.398438 21.96875 35.398438 22.070312 L 35.398438 23.585938 C 35.398438 23.6875 35.316406 23.773438 35.210938 23.773438 Z M 35.210938 21.503906 C 35.105469 21.503906 35.023438 21.417969 35.023438 21.316406 L 35.023438 20.558594 C 35.023438 20.453125 35.105469 20.371094 35.210938 20.371094 C 35.3125 20.371094 35.398438 20.453125 35.398438 20.558594 L 35.398438 21.316406 C 35.398438 21.417969 35.316406 21.503906 35.210938 21.503906 Z M 35.210938 21.503906 "/>
<path style=" stroke:none;fill-rule:nonzero;fill:rgb(99.215686%,98.823529%,93.72549%);fill-opacity:1;" d="M 40.324219 38.285156 C 41.265625 38.285156 42.082031 38.285156 42.09375 38.285156 C 43.148438 38.285156 44.003906 37.445312 44.003906 36.414062 C 44.003906 35.511719 43.351562 34.761719 42.488281 34.585938 C 42.496094 34.503906 42.503906 34.425781 42.503906 34.34375 C 42.503906 33.273438 41.617188 32.40625 40.523438 32.40625 C 39.878906 32.40625 39.308594 32.710938 38.949219 33.179688 C 38.855469 31.988281 37.769531 31.070312 36.496094 31.222656 C 35.566406 31.335938 34.800781 32.035156 34.628906 32.9375 C 34.574219 33.226562 34.578125 33.507812 34.632812 33.769531 C 34.382812 33.507812 34.03125 33.34375 33.632812 33.34375 C 32.910156 33.34375 32.320312 33.894531 32.273438 34.589844 C 31.945312 34.519531 31.589844 34.523438 31.214844 34.660156 C 30.492188 34.925781 29.980469 35.585938 29.953125 36.339844 C 29.910156 37.40625 30.78125 38.285156 31.859375 38.285156 C 31.941406 38.285156 32.230469 38.285156 32.296875 38.285156 L 36.265625 38.285156 M 37.085938 38.285156 L 37.265625 38.285156 "/>
<path style=" stroke:none;fill-rule:nonzero;fill:rgb(27.843137%,16.862745%,16.078431%);fill-opacity:1;" d="M 42.09375 38.535156 L 40.324219 38.535156 C 40.183594 38.535156 40.074219 38.421875 40.074219 38.285156 C 40.074219 38.144531 40.183594 38.035156 40.324219 38.035156 L 42.09375 38.035156 C 43.007812 38.035156 43.753906 37.308594 43.753906 36.414062 C 43.753906 35.652344 43.199219 34.984375 42.4375 34.828125 C 42.308594 34.804688 42.222656 34.683594 42.238281 34.554688 C 42.246094 34.484375 42.253906 34.414062 42.253906 34.34375 C 42.253906 33.414062 41.476562 32.65625 40.523438 32.65625 C 39.976562 32.65625 39.476562 32.902344 39.144531 33.332031 C 39.082031 33.414062 38.972656 33.445312 38.875 33.417969 C 38.777344 33.386719 38.703125 33.300781 38.699219 33.199219 C 38.65625 32.6875 38.414062 32.226562 38.011719 31.898438 C 37.597656 31.558594 37.070312 31.40625 36.527344 31.46875 C 35.703125 31.570312 35.023438 32.191406 34.871094 32.984375 C 34.824219 33.230469 34.828125 33.480469 34.878906 33.71875 C 34.898438 33.828125 34.847656 33.941406 34.746094 33.992188 C 34.648438 34.042969 34.527344 34.023438 34.449219 33.941406 C 34.238281 33.714844 33.945312 33.59375 33.632812 33.59375 C 33.046875 33.59375 32.558594 34.039062 32.523438 34.605469 C 32.515625 34.679688 32.480469 34.746094 32.421875 34.789062 C 32.363281 34.832031 32.292969 34.847656 32.21875 34.832031 C 31.902344 34.761719 31.597656 34.785156 31.296875 34.894531 C 30.667969 35.128906 30.226562 35.710938 30.199219 36.347656 C 30.183594 36.785156 30.339844 37.203125 30.648438 37.519531 C 30.964844 37.851562 31.394531 38.03125 31.859375 38.03125 L 36.261719 38.03125 C 36.402344 38.03125 36.511719 38.144531 36.511719 38.28125 C 36.511719 38.421875 36.402344 38.53125 36.261719 38.53125 L 31.859375 38.53125 C 31.265625 38.53125 30.695312 38.289062 30.289062 37.867188 C 29.886719 37.449219 29.679688 36.902344 29.699219 36.328125 C 29.734375 35.492188 30.308594 34.726562 31.125 34.425781 C 31.429688 34.3125 31.746094 34.273438 32.066406 34.300781 C 32.238281 33.605469 32.878906 33.089844 33.632812 33.089844 C 33.878906 33.089844 34.121094 33.148438 34.339844 33.253906 C 34.34375 33.132812 34.359375 33.011719 34.382812 32.890625 C 34.574219 31.882812 35.429688 31.097656 36.46875 30.972656 C 37.148438 30.890625 37.808594 31.082031 38.332031 31.507812 C 38.703125 31.816406 38.96875 32.214844 39.101562 32.660156 C 39.5 32.335938 39.996094 32.15625 40.523438 32.15625 C 41.753906 32.15625 42.753906 33.136719 42.753906 34.34375 C 42.753906 34.359375 42.753906 34.375 42.753906 34.394531 C 43.636719 34.671875 44.253906 35.488281 44.253906 36.414062 C 44.253906 37.582031 43.285156 38.535156 42.09375 38.535156 Z M 37.265625 38.535156 L 37.085938 38.535156 C 36.945312 38.535156 36.835938 38.421875 36.835938 38.285156 C 36.835938 38.144531 36.945312 38.035156 37.085938 38.035156 L 37.265625 38.035156 C 37.402344 38.035156 37.515625 38.144531 37.515625 38.285156 C 37.515625 38.421875 37.402344 38.535156 37.265625 38.535156 Z M 37.265625 38.535156 "/>
<path style=" stroke:none;fill-rule:nonzero;fill:rgb(27.843137%,16.862745%,16.078431%);fill-opacity:1;" d="M 41.238281 35.632812 C 41.230469 35.632812 41.222656 35.632812 41.210938 35.628906 C 41.144531 35.613281 41.101562 35.546875 41.117188 35.480469 C 41.136719 35.398438 41.164062 35.316406 41.203125 35.238281 C 41.503906 34.628906 42.339844 34.402344 43.0625 34.738281 C 43.125 34.765625 43.152344 34.839844 43.125 34.902344 C 43.09375 34.964844 43.019531 34.992188 42.960938 34.964844 C 42.355469 34.683594 41.667969 34.859375 41.425781 35.351562 C 41.398438 35.410156 41.375 35.472656 41.363281 35.535156 C 41.347656 35.59375 41.296875 35.632812 41.238281 35.632812 Z M 38.660156 38.535156 L 38.109375 38.535156 C 37.96875 38.535156 37.859375 38.421875 37.859375 38.285156 C 37.859375 38.144531 37.96875 38.035156 38.109375 38.035156 L 38.660156 38.035156 C 38.796875 38.035156 38.910156 38.144531 38.910156 38.285156 C 38.910156 38.421875 38.796875 38.535156 38.660156 38.535156 Z M 25.148438 30.476562 L 22.453125 30.476562 C 22.355469 30.476562 22.277344 30.398438 22.277344 30.300781 L 22.277344 28.375 C 22.277344 28.277344 22.355469 28.199219 22.453125 28.199219 C 22.546875 28.199219 22.625 28.277344 22.625 28.375 L 22.625 30.125 L 24.972656 30.125 L 24.972656 21.230469 L 22.625 21.230469 L 22.625 22.980469 C 22.625 23.078125 22.546875 23.15625 22.453125 23.15625 C 22.355469 23.15625 22.277344 23.078125 22.277344 22.980469 L 22.277344 21.054688 C 22.277344 20.960938 22.355469 20.882812 22.453125 20.882812 L 25.148438 20.882812 C 25.246094 20.882812 25.324219 20.960938 25.324219 21.054688 L 25.324219 30.300781 C 25.324219 30.398438 25.246094 30.476562 25.148438 30.476562 Z M 25.148438 30.476562 "/>
<path style=" stroke:none;fill-rule:nonzero;fill:rgb(99.215686%,98.823529%,93.333333%);fill-opacity:1;" d="M 29.769531 30.398438 L 25.148438 31.988281 L 25.148438 19.015625 L 29.769531 20.605469 Z M 29.769531 30.398438 "/>
<path style=" stroke:none;fill-rule:nonzero;fill:rgb(27.843137%,16.862745%,16.078431%);fill-opacity:1;" d="M 25.148438 32.164062 C 25.113281 32.164062 25.074219 32.152344 25.046875 32.128906 C 25 32.097656 24.972656 32.042969 24.972656 31.988281 L 24.972656 19.015625 C 24.972656 18.957031 25 18.90625 25.046875 18.871094 C 25.09375 18.839844 25.152344 18.832031 25.203125 18.847656 L 29.828125 20.441406 C 29.898438 20.464844 29.945312 20.53125 29.945312 20.605469 L 29.945312 30.398438 C 29.945312 30.472656 29.898438 30.539062 29.828125 30.5625 L 25.203125 32.152344 C 25.1875 32.160156 25.167969 32.164062 25.148438 32.164062 Z M 25.324219 19.261719 L 25.324219 31.742188 L 29.597656 30.273438 L 29.597656 20.730469 Z M 29.773438 30.398438 L 29.777344 30.398438 Z M 29.773438 30.398438 "/>
<path style=" stroke:none;fill-rule:nonzero;fill:rgb(0%,64.705882%,64.705882%);fill-opacity:1;" d="M 26.304688 25.292969 C 26.089844 25.292969 25.917969 25.464844 25.917969 25.679688 C 25.917969 25.890625 26.089844 26.0625 26.304688 26.0625 C 26.515625 26.0625 26.6875 25.890625 26.6875 25.679688 C 26.6875 25.464844 26.515625 25.292969 26.304688 25.292969 Z M 26.304688 25.292969 "/>
<path style=" stroke:none;fill-rule:nonzero;fill:rgb(27.843137%,16.862745%,16.078431%);fill-opacity:1;" d="M 26.304688 26.164062 C 26.035156 26.164062 25.820312 25.945312 25.820312 25.679688 C 25.820312 25.410156 26.035156 25.191406 26.304688 25.191406 C 26.570312 25.191406 26.789062 25.410156 26.789062 25.679688 C 26.789062 25.945312 26.570312 26.164062 26.304688 26.164062 Z M 26.304688 25.394531 C 26.148438 25.394531 26.019531 25.523438 26.019531 25.679688 C 26.019531 25.835938 26.148438 25.964844 26.304688 25.964844 C 26.460938 25.964844 26.589844 25.835938 26.589844 25.679688 C 26.589844 25.523438 26.460938 25.394531 26.304688 25.394531 Z M 26.304688 25.394531 "/>
<path style=" stroke:none;fill-rule:nonzero;fill:rgb(99.215686%,98.823529%,93.333333%);fill-opacity:1;" d="M 21.015625 28.082031 L 23.390625 25.738281 C 23.414062 25.71875 23.429688 25.691406 23.441406 25.664062 C 23.445312 25.65625 23.449219 25.648438 23.453125 25.636719 C 23.460938 25.617188 23.460938 25.601562 23.464844 25.582031 C 23.464844 25.570312 23.472656 25.558594 23.472656 25.546875 C 23.472656 25.53125 23.457031 25.328125 23.390625 25.261719 L 21.015625 22.921875 C 20.90625 22.8125 20.730469 22.8125 20.621094 22.921875 C 20.511719 23.027344 20.511719 23.203125 20.621094 23.3125 L 22.605469 25.148438 L 18.382812 25.128906 C 18.226562 25.246094 18.226562 25.394531 18.226562 25.542969 C 18.226562 25.695312 18.351562 25.820312 18.503906 25.863281 L 22.515625 25.863281 L 20.621094 27.691406 C 20.511719 27.796875 20.511719 27.972656 20.621094 28.082031 C 20.730469 28.1875 20.90625 28.1875 21.015625 28.082031 Z M 21.015625 28.082031 "/>
<path style=" stroke:none;fill-rule:nonzero;fill:rgb(27.843137%,16.862745%,16.078431%);fill-opacity:1;" d="M 20.820312 22.839844 C 20.890625 22.839844 20.960938 22.867188 21.015625 22.921875 L 23.390625 25.261719 C 23.457031 25.328125 23.472656 25.53125 23.472656 25.546875 C 23.472656 25.558594 23.464844 25.570312 23.464844 25.582031 C 23.460938 25.601562 23.460938 25.617188 23.453125 25.636719 C 23.449219 25.648438 23.445312 25.65625 23.441406 25.664062 C 23.429688 25.691406 23.414062 25.71875 23.390625 25.738281 L 21.015625 28.082031 C 20.960938 28.132812 20.890625 28.160156 20.820312 28.160156 C 20.746094 28.160156 20.675781 28.132812 20.621094 28.082031 C 20.511719 27.972656 20.511719 27.796875 20.621094 27.691406 L 22.515625 25.867188 L 18.503906 25.867188 C 18.351562 25.820312 18.226562 25.695312 18.226562 25.546875 C 18.226562 25.394531 18.226562 25.246094 18.382812 25.128906 L 22.605469 25.148438 L 20.621094 23.3125 C 20.511719 23.203125 20.511719 23.027344 20.621094 22.921875 C 20.675781 22.867188 20.746094 22.839844 20.820312 22.839844 M 20.820312 22.539062 C 20.664062 22.539062 20.519531 22.601562 20.410156 22.707031 C 20.300781 22.816406 20.238281 22.960938 20.238281 23.117188 C 20.238281 23.273438 20.300781 23.417969 20.410156 23.527344 L 21.835938 24.847656 L 18.382812 24.828125 C 18.316406 24.828125 18.25 24.847656 18.199219 24.890625 C 17.925781 25.101562 17.925781 25.378906 17.925781 25.546875 C 17.925781 25.824219 18.125 26.066406 18.421875 26.152344 C 18.449219 26.160156 18.476562 26.164062 18.503906 26.164062 L 21.773438 26.164062 L 20.410156 27.472656 C 20.300781 27.585938 20.238281 27.730469 20.238281 27.886719 C 20.238281 28.039062 20.300781 28.1875 20.410156 28.292969 C 20.519531 28.402344 20.664062 28.460938 20.816406 28.460938 C 20.972656 28.460938 21.117188 28.402344 21.226562 28.292969 L 23.601562 25.953125 C 23.644531 25.910156 23.683594 25.855469 23.710938 25.792969 C 23.71875 25.78125 23.726562 25.761719 23.734375 25.738281 C 23.746094 25.699219 23.753906 25.667969 23.757812 25.640625 C 23.765625 25.617188 23.773438 25.585938 23.773438 25.542969 C 23.773438 25.539062 23.769531 25.214844 23.601562 25.046875 L 21.226562 22.707031 C 21.117188 22.601562 20.972656 22.539062 20.820312 22.539062 Z M 20.820312 22.539062 "/>
<path style=" stroke:none;fill-rule:nonzero;fill:rgb(27.843137%,16.862745%,16.078431%);fill-opacity:1;" d="M 28.96875 37.3125 C 28.953125 37.3125 28.941406 37.308594 28.929688 37.300781 C 28.894531 37.28125 28.882812 37.234375 28.90625 37.199219 L 29.886719 35.644531 C 29.910156 35.609375 29.957031 35.597656 29.988281 35.621094 C 30.023438 35.644531 30.035156 35.691406 30.011719 35.726562 L 29.03125 37.277344 C 29.019531 37.300781 28.992188 37.3125 28.96875 37.3125 Z M 28.46875 37.3125 C 28.453125 37.3125 28.441406 37.308594 28.429688 37.300781 C 28.394531 37.28125 28.382812 37.234375 28.40625 37.199219 L 29.386719 35.644531 C 29.410156 35.609375 29.457031 35.597656 29.488281 35.621094 C 29.523438 35.644531 29.535156 35.691406 29.511719 35.726562 L 28.53125 37.277344 C 28.519531 37.300781 28.492188 37.3125 28.46875 37.3125 Z M 27.96875 37.3125 C 27.953125 37.3125 27.941406 37.308594 27.929688 37.300781 C 27.894531 37.28125 27.882812 37.234375 27.90625 37.199219 L 28.886719 35.644531 C 28.910156 35.609375 28.957031 35.597656 28.988281 35.621094 C 29.023438 35.644531 29.035156 35.691406 29.011719 35.726562 L 28.03125 37.277344 C 28.019531 37.300781 27.992188 37.3125 27.96875 37.3125 Z M 27.46875 37.3125 C 27.453125 37.3125 27.441406 37.308594 27.429688 37.300781 C 27.394531 37.28125 27.382812 37.234375 27.40625 37.199219 L 28.386719 35.644531 C 28.410156 35.609375 28.457031 35.597656 28.488281 35.621094 C 28.523438 35.644531 28.535156 35.691406 28.511719 35.726562 L 27.53125 37.277344 C 27.519531 37.300781 27.492188 37.3125 27.46875 37.3125 Z M 26.96875 37.3125 C 26.953125 37.3125 26.941406 37.308594 26.929688 37.300781 C 26.894531 37.28125 26.882812 37.234375 26.90625 37.199219 L 27.886719 35.644531 C 27.910156 35.609375 27.957031 35.597656 27.988281 35.621094 C 28.023438 35.644531 28.035156 35.691406 28.011719 35.726562 L 27.03125 37.277344 C 27.019531 37.300781 26.992188 37.3125 26.96875 37.3125 Z M 26.46875 37.3125 C 26.453125 37.3125 26.441406 37.308594 26.429688 37.300781 C 26.394531 37.28125 26.382812 37.234375 26.40625 37.199219 L 27.386719 35.644531 C 27.410156 35.609375 27.457031 35.597656 27.488281 35.621094 C 27.523438 35.644531 27.535156 35.691406 27.511719 35.726562 L 26.53125 37.277344 C 26.519531 37.300781 26.492188 37.3125 26.46875 37.3125 Z M 25.96875 37.3125 C 25.953125 37.3125 25.941406 37.308594 25.929688 37.300781 C 25.894531 37.28125 25.882812 37.234375 25.90625 37.199219 L 26.554688 36.171875 C 26.574219 36.136719 26.621094 36.125 26.65625 36.148438 C 26.691406 36.171875 26.703125 36.214844 26.679688 36.25 L 26.03125 37.277344 C 26.019531 37.300781 25.992188 37.3125 25.96875 37.3125 Z M 25.46875 37.3125 C 25.453125 37.3125 25.441406 37.308594 25.429688 37.300781 C 25.394531 37.28125 25.382812 37.234375 25.40625 37.199219 L 25.8125 36.554688 C 25.835938 36.519531 25.882812 36.507812 25.914062 36.53125 C 25.949219 36.550781 25.960938 36.597656 25.9375 36.632812 L 25.53125 37.277344 C 25.519531 37.300781 25.492188 37.3125 25.46875 37.3125 Z M 25.46875 37.3125 "/>
</g>
</svg>
