<?xml version="1.0" encoding="UTF-8"?>
<svg xmlns="http://www.w3.org/2000/svg" xmlns:xlink="http://www.w3.org/1999/xlink" width="50px" height="50px" viewBox="0 0 50 50" version="1.1">
<g id="surface1172">
<path style=" stroke:none;fill-rule:nonzero;fill:rgb(37.647059%,49.019608%,54.509804%);fill-opacity:1;" d="M 26.457031 5.832031 C 25.625 5 24.375 5 23.542969 5.832031 L 11.042969 18.332031 C 10.207031 19.167969 10.207031 20.417969 11.042969 21.25 C 11.457031 21.667969 11.980469 21.875 12.5 21.875 C 13.019531 21.875 13.542969 21.667969 13.957031 21.25 L 26.457031 8.75 C 27.292969 7.917969 27.292969 6.667969 26.457031 5.832031 Z M 26.457031 5.832031 "/>
<path style=" stroke:none;fill-rule:nonzero;fill:rgb(27.058824%,35.294118%,39.215686%);fill-opacity:1;" d="M 38.957031 18.332031 L 26.457031 5.832031 C 25.625 5 24.375 5 23.542969 5.832031 C 22.707031 6.667969 22.707031 7.917969 23.542969 8.75 L 36.042969 21.25 C 36.457031 21.667969 36.980469 21.875 37.5 21.875 C 38.019531 21.875 38.542969 21.667969 38.957031 21.25 C 39.792969 20.417969 39.792969 19.167969 38.957031 18.332031 Z M 38.957031 18.332031 "/>
<path style=" stroke:none;fill-rule:nonzero;fill:rgb(82.745098%,18.431373%,18.431373%);fill-opacity:1;" d="M 38.957031 42.707031 L 11.042969 42.707031 C 10 42.707031 9.167969 41.980469 8.957031 41.042969 L 5.207031 21.875 L 44.792969 21.875 L 40.9375 41.042969 C 40.730469 41.980469 39.894531 42.707031 38.957031 42.707031 Z M 38.957031 42.707031 "/>
<path style=" stroke:none;fill-rule:nonzero;fill:rgb(95.686275%,26.27451%,21.176471%);fill-opacity:1;" d="M 44.792969 23.957031 L 5.207031 23.957031 C 4.0625 23.957031 3.125 23.019531 3.125 21.875 L 3.125 19.792969 C 3.125 18.644531 4.0625 17.707031 5.207031 17.707031 L 44.792969 17.707031 C 45.9375 17.707031 46.875 18.644531 46.875 19.792969 L 46.875 21.875 C 46.875 23.019531 45.9375 23.957031 44.792969 23.957031 Z M 44.792969 23.957031 "/>
<path style=" stroke:none;fill-rule:nonzero;fill:rgb(49.019608%,7.45098%,7.45098%);fill-opacity:1;" d="M 26.042969 26.042969 L 23.957031 26.042969 C 23.957031 26.042969 23.957031 37.292969 23.957031 37.5 C 23.957031 38.125 24.375 38.542969 25 38.542969 C 25.625 38.542969 26.042969 38.125 26.042969 37.5 C 26.042969 37.292969 26.042969 26.042969 26.042969 26.042969 Z M 30.207031 26.042969 L 28.125 26.042969 C 28.125 26.042969 28.125 37.292969 28.125 37.5 C 28.125 38.125 28.542969 38.542969 29.167969 38.542969 C 29.792969 38.542969 30.207031 38.125 30.207031 37.5 C 30.207031 37.292969 30.207031 26.042969 30.207031 26.042969 Z M 34.375 26.042969 L 32.292969 26.042969 C 32.292969 26.042969 32.292969 37.292969 32.292969 37.5 C 32.292969 38.125 32.707031 38.542969 33.332031 38.542969 C 33.957031 38.542969 34.375 38.125 34.375 37.5 C 34.375 37.292969 34.375 26.042969 34.375 26.042969 Z M 17.707031 26.042969 L 15.625 26.042969 C 15.625 26.042969 15.625 37.292969 15.625 37.5 C 15.625 38.125 16.042969 38.542969 16.667969 38.542969 C 17.292969 38.542969 17.707031 38.125 17.707031 37.5 C 17.707031 37.292969 17.707031 26.042969 17.707031 26.042969 Z M 21.875 26.042969 L 19.792969 26.042969 C 19.792969 26.042969 19.792969 37.292969 19.792969 37.5 C 19.792969 38.125 20.207031 38.542969 20.832031 38.542969 C 21.457031 38.542969 21.875 38.125 21.875 37.5 C 21.875 37.292969 21.875 26.042969 21.875 26.042969 Z M 21.875 26.042969 "/>
</g>
</svg>
