<?xml version="1.0" encoding="UTF-8"?>
<svg xmlns="http://www.w3.org/2000/svg" xmlns:xlink="http://www.w3.org/1999/xlink" width="50px" height="50px" viewBox="0 0 50 50" version="1.1">
<defs>
<filter id="alpha" filterUnits="objectBoundingBox" x="0%" y="0%" width="100%" height="100%">
  <feColorMatrix type="matrix" in="SourceGraphic" values="0 0 0 0 1 0 0 0 0 1 0 0 0 0 1 0 0 0 1 0"/>
</filter>
<mask id="mask0">
  <g filter="url(#alpha)">
<rect x="0" y="0" width="50" height="50" style="fill:rgb(0%,0%,0%);fill-opacity:0.301961;stroke:none;"/>
  </g>
</mask>
<mask id="mask1">
  <g filter="url(#alpha)">
<rect x="0" y="0" width="50" height="50" style="fill:rgb(0%,0%,0%);fill-opacity:0.8;stroke:none;"/>
  </g>
</mask>
<clipPath id="clip2">
  <rect width="50" height="50"/>
</clipPath>
<g id="surface1207" clip-path="url(#clip2)">
<path style=" stroke:none;fill-rule:nonzero;fill:rgb(95.686275%,59.607843%,61.960784%);fill-opacity:1;" d="M 29.351562 25.398438 C 28.964844 25.398438 28.648438 25.714844 28.648438 26.101562 C 28.648438 26.488281 28.964844 26.800781 29.351562 26.800781 C 29.738281 26.800781 30.050781 26.488281 30.050781 26.101562 C 30.050781 25.714844 29.738281 25.398438 29.351562 25.398438 Z M 34.75 25.398438 C 34.363281 25.398438 34.050781 25.714844 34.050781 26.101562 C 34.050781 26.488281 34.363281 26.800781 34.75 26.800781 C 35.136719 26.800781 35.449219 26.488281 35.449219 26.101562 C 35.449219 25.714844 35.136719 25.398438 34.75 25.398438 Z M 34.75 25.398438 "/>
</g>
<clipPath id="clip1">
  <rect width="50" height="50"/>
</clipPath>
<g id="surface1209" clip-path="url(#clip1)">
<use xlink:href="#surface1207" mask="url(#mask1)"/>
</g>
<mask id="mask2">
  <g filter="url(#alpha)">
<rect x="0" y="0" width="50" height="50" style="fill:rgb(0%,0%,0%);fill-opacity:0.411765;stroke:none;"/>
  </g>
</mask>
<clipPath id="clip3">
  <rect width="50" height="50"/>
</clipPath>
<g id="surface1212" clip-path="url(#clip3)">
<path style=" stroke:none;fill-rule:nonzero;fill:rgb(27.843137%,16.862745%,16.078431%);fill-opacity:1;" d="M 32 26.898438 C 32.25 26.898438 32.550781 26.800781 32.699219 26.601562 C 32.699219 26.601562 32.699219 26.550781 32.699219 26.550781 C 32.699219 26.550781 32.648438 26.550781 32.648438 26.550781 C 32.5 26.699219 32.300781 26.800781 32 26.800781 C 31.75 26.800781 31.5 26.699219 31.351562 26.550781 C 31.351562 26.550781 31.351562 26.550781 31.300781 26.550781 C 31.300781 26.550781 31.300781 26.550781 31.25 26.550781 C 31.25 26.550781 31.25 26.601562 31.25 26.601562 C 31.449219 26.75 31.699219 26.898438 32 26.898438 Z M 32.300781 29.300781 C 32.300781 29.300781 32.300781 29.25 32.300781 29.300781 C 32.351562 29.25 32.300781 29.25 32.300781 29.25 L 31.648438 29.25 C 31.648438 29.25 31.601562 29.25 31.601562 29.300781 C 31.601562 29.351562 31.601562 29.351562 31.648438 29.351562 L 32.300781 29.351562 Z M 32.300781 29.300781 "/>
</g>
</defs>
<g id="surface1201">
<path style=" stroke:none;fill-rule:nonzero;fill:rgb(78.431373%,92.941176%,90.196078%);fill-opacity:1;" d="M 43.601562 27.800781 C 43.75 27.5 43.898438 27.148438 44 26.851562 C 45.300781 22.949219 43.351562 18.300781 39.148438 17.199219 C 38.699219 11.5 34.699219 7.601562 30.199219 6.949219 C 25.050781 6.199219 20.300781 9.449219 18.699219 14.699219 C 16.800781 14.050781 14.949219 14.101562 13.199219 15.148438 C 12.398438 15.5 11.699219 16.050781 11.050781 16.75 C 10.101562 17.800781 9.5 19.101562 9.199219 20.5 C 8.851562 20.550781 8.449219 20.601562 8.101562 20.75 C 6.101562 21.449219 4.800781 22.949219 4.449219 25.199219 C 4.25 26.601562 4.648438 28 4.898438 28.550781 C 5.851562 30.800781 8.101562 32.050781 10.398438 31.699219 C 10.5 31.699219 10.699219 31.75 10.800781 31.800781 C 10.898438 35.351562 12.648438 38.5 15.25 40.300781 C 19.398438 43.199219 24.75 42.300781 28.148438 38.351562 C 29.601562 39.851562 31.300781 40.550781 33.351562 40.300781 C 35.351562 40.050781 36.898438 38.949219 38.050781 37.148438 C 38.601562 37.300781 39.101562 37.5 39.601562 37.550781 C 41.601562 37.75 43.25 36.949219 44.449219 35.148438 C 44.5 35.101562 44.550781 35.050781 44.601562 35 C 44.75 34.601562 44.949219 34.199219 45.101562 33.800781 C 45.199219 33.199219 45.300781 32.601562 45.300781 32 C 45.351562 30.25 44.699219 28.75 43.601562 27.800781 Z M 43.601562 27.800781 "/>
<path style=" stroke:none;fill-rule:nonzero;fill:rgb(99.215686%,98.823529%,93.72549%);fill-opacity:1;" d="M 32.75 17.699219 C 32.75 17.699219 26.898438 17.699219 26.851562 17.699219 C 25.5 17.699219 24.398438 16.601562 24.398438 15.25 C 24.398438 14.050781 25.25 13.101562 26.351562 12.851562 C 26.351562 12.75 26.351562 12.648438 26.351562 12.550781 C 26.351562 11.148438 27.5 10 28.898438 10 C 29.75 10 30.449219 10.398438 30.898438 11 C 31 9.449219 32.398438 8.25 34.050781 8.449219 C 35.25 8.601562 36.199219 9.5 36.449219 10.699219 C 36.5 11.101562 36.5 11.449219 36.449219 11.800781 C 36.75 11.449219 37.199219 11.25 37.75 11.25 C 38.648438 11.25 39.449219 11.949219 39.5 12.898438 C 39.898438 12.800781 40.398438 12.800781 40.851562 13 C 41.75 13.351562 42.449219 14.199219 42.449219 15.199219 C 42.5 16.601562 41.398438 17.75 40 17.75 C 39.898438 17.75 39.550781 17.75 39.449219 17.75 L 34.351562 17.75 "/>
<path style=" stroke:none;fill-rule:nonzero;fill:rgb(27.843137%,16.862745%,16.078431%);fill-opacity:1;" d="M 26.851562 17.949219 L 32.75 17.949219 C 32.898438 17.949219 33 17.851562 33 17.699219 C 33 17.550781 32.898438 17.449219 32.75 17.449219 L 26.851562 17.449219 C 25.648438 17.449219 24.648438 16.449219 24.648438 15.25 C 24.648438 14.199219 25.398438 13.300781 26.398438 13.101562 C 26.550781 13.050781 26.601562 12.949219 26.601562 12.800781 C 26.601562 12.699219 26.601562 12.601562 26.601562 12.5 C 26.601562 11.25 27.601562 10.199219 28.898438 10.199219 C 29.601562 10.199219 30.300781 10.550781 30.699219 11.101562 C 30.75 11.199219 30.851562 11.199219 30.949219 11.199219 C 31.050781 11.148438 31.101562 11.101562 31.148438 11 C 31.199219 10.300781 31.550781 9.648438 32.050781 9.25 C 32.601562 8.800781 33.300781 8.601562 34 8.699219 C 35.101562 8.851562 36 9.648438 36.199219 10.75 C 36.25 11.101562 36.25 11.398438 36.199219 11.75 C 36.199219 11.851562 36.25 11.949219 36.351562 12 C 36.449219 12.050781 36.550781 12.050781 36.648438 11.949219 C 36.949219 11.648438 37.351562 11.449219 37.75 11.449219 C 38.550781 11.449219 39.199219 12.050781 39.25 12.851562 C 39.25 12.898438 39.300781 13 39.351562 13.050781 C 39.398438 13.101562 39.5 13.101562 39.550781 13.101562 C 39.949219 13 40.351562 13.050781 40.75 13.199219 C 41.601562 13.5 42.148438 14.300781 42.199219 15.148438 C 42.199219 15.75 42 16.300781 41.601562 16.75 C 41.199219 17.199219 40.601562 17.398438 40 17.398438 L 34.351562 17.398438 C 34.199219 17.398438 34.101562 17.5 34.101562 17.648438 C 34.101562 17.800781 34.199219 17.898438 34.351562 17.898438 L 40 17.898438 C 40.75 17.898438 41.449219 17.601562 41.949219 17.050781 C 42.449219 16.5 42.75 15.800781 42.699219 15.050781 C 42.648438 14 41.949219 13 40.898438 12.648438 C 40.5 12.5 40.101562 12.449219 39.648438 12.5 C 39.449219 11.601562 38.648438 10.898438 37.699219 10.898438 C 37.351562 10.898438 37 11 36.75 11.148438 C 36.75 10.949219 36.75 10.75 36.699219 10.550781 C 36.449219 9.25 35.398438 8.25 34.101562 8.101562 C 33.25 8 32.449219 8.25 31.800781 8.75 C 31.300781 9.148438 30.949219 9.75 30.800781 10.351562 C 30.300781 9.898438 29.648438 9.648438 28.949219 9.648438 C 27.398438 9.648438 26.148438 10.898438 26.148438 12.449219 C 26.148438 12.5 26.148438 12.550781 26.148438 12.550781 C 25 12.898438 24.25 13.949219 24.25 15.148438 C 24.199219 16.75 25.398438 17.949219 26.851562 17.949219 Z M 26.851562 17.949219 "/>
<path style=" stroke:none;fill-rule:nonzero;fill:rgb(99.215686%,98.823529%,93.72549%);fill-opacity:1;" d="M 34.148438 12.351562 C 35.050781 12.300781 35.851562 12.898438 35.898438 13.75 C 35.898438 13.851562 35.898438 13.949219 35.898438 14.050781 C 36.050781 13.851562 36.351562 13.699219 36.648438 13.699219 C 37.199219 13.648438 37.648438 14 37.75 14.5 C 37.851562 14.449219 37.949219 14.449219 38.050781 14.449219 C 38.851562 14.398438 39.5 14.949219 39.550781 15.648438 "/>
<path style=" stroke:none;fill-rule:nonzero;fill:rgb(27.843137%,16.862745%,16.078431%);fill-opacity:1;" d="M 39.550781 15.800781 C 39.648438 15.800781 39.699219 15.75 39.699219 15.648438 C 39.648438 14.851562 38.898438 14.25 38.050781 14.300781 C 38 14.300781 37.898438 14.300781 37.851562 14.351562 C 37.699219 13.851562 37.199219 13.550781 36.648438 13.550781 C 36.449219 13.550781 36.25 13.648438 36.050781 13.75 C 36.050781 13.75 36.050781 13.75 36.050781 13.699219 C 36 12.800781 35.148438 12.101562 34.199219 12.199219 C 34.148438 12.199219 34.101562 12.25 34.101562 12.351562 C 34.101562 12.398438 34.148438 12.5 34.25 12.449219 C 35.101562 12.398438 35.800781 12.949219 35.851562 13.75 C 35.851562 13.851562 35.851562 13.949219 35.851562 14.050781 C 35.851562 14.101562 35.851562 14.148438 35.898438 14.199219 C 35.949219 14.25 36 14.199219 36.050781 14.148438 C 36.199219 13.949219 36.449219 13.851562 36.699219 13.851562 C 37.199219 13.851562 37.601562 14.148438 37.648438 14.550781 C 37.648438 14.601562 37.699219 14.601562 37.699219 14.648438 C 37.75 14.648438 37.75 14.699219 37.800781 14.648438 C 37.898438 14.601562 38 14.601562 38.101562 14.601562 C 38.800781 14.550781 39.449219 15.050781 39.5 15.699219 C 39.398438 15.75 39.449219 15.800781 39.550781 15.800781 Z M 39.550781 15.800781 "/>
<path style=" stroke:none;fill-rule:nonzero;fill:rgb(99.215686%,98.823529%,93.72549%);fill-opacity:1;" d="M 25.898438 13.148438 C 26.75 12.75 27.75 13.050781 28.101562 13.800781 C 28.148438 13.898438 28.199219 14 28.199219 14.101562 "/>
<path style=" stroke:none;fill-rule:nonzero;fill:rgb(27.843137%,16.862745%,16.078431%);fill-opacity:1;" d="M 28.199219 14.199219 C 28.300781 14.199219 28.351562 14.101562 28.300781 14.050781 C 28.300781 13.949219 28.25 13.851562 28.199219 13.75 C 27.800781 12.949219 26.75 12.648438 25.851562 13.050781 C 25.800781 13.101562 25.75 13.148438 25.800781 13.199219 C 25.851562 13.25 25.898438 13.300781 25.949219 13.25 C 26.75 12.898438 27.648438 13.148438 28 13.800781 C 28.050781 13.898438 28.050781 13.949219 28.101562 14.050781 C 28.050781 14.148438 28.101562 14.199219 28.199219 14.199219 Z M 28.199219 14.199219 "/>
<path style=" stroke:none;fill-rule:nonzero;fill:rgb(99.215686%,98.823529%,93.72549%);fill-opacity:1;" d="M 15.601562 39.648438 C 16.550781 39.648438 17.351562 39.648438 17.351562 39.648438 C 18.398438 39.648438 19.25 38.800781 19.25 37.800781 C 19.25 36.898438 18.601562 36.148438 17.75 35.949219 C 17.75 35.851562 17.75 35.800781 17.75 35.699219 C 17.75 34.648438 16.851562 33.75 15.75 33.75 C 15.101562 33.75 14.550781 34.050781 14.148438 34.5 C 14.050781 33.300781 12.949219 32.398438 11.699219 32.550781 C 10.75 32.648438 10 33.351562 9.851562 34.25 C 9.800781 34.550781 9.800781 34.800781 9.851562 35.101562 C 9.601562 34.851562 9.25 34.648438 8.851562 34.648438 C 8.148438 34.648438 7.550781 35.199219 7.5 35.898438 C 7.148438 35.851562 6.800781 35.851562 6.449219 35.949219 C 5.75 36.199219 5.199219 36.898438 5.199219 37.648438 C 5.148438 38.699219 6.050781 39.601562 7.101562 39.601562 C 7.199219 39.601562 7.449219 39.601562 7.550781 39.601562 L 11.5 39.601562 M 12.351562 39.648438 L 12.550781 39.648438 "/>
<path style=" stroke:none;fill-rule:nonzero;fill:rgb(27.843137%,16.862745%,16.078431%);fill-opacity:1;" d="M 17.351562 39.898438 L 15.601562 39.898438 C 15.449219 39.898438 15.351562 39.800781 15.351562 39.648438 C 15.351562 39.5 15.449219 39.398438 15.601562 39.398438 L 17.351562 39.398438 C 18.25 39.398438 19 38.648438 19 37.800781 C 19 37.050781 18.449219 36.351562 17.699219 36.199219 C 17.550781 36.148438 17.5 36.050781 17.5 35.898438 C 17.5 35.851562 17.5 35.75 17.5 35.699219 C 17.5 34.75 16.699219 34 15.75 34 C 15.199219 34 14.699219 34.25 14.351562 34.648438 C 14.300781 34.75 14.199219 34.75 14.101562 34.75 C 14 34.699219 13.949219 34.648438 13.898438 34.550781 C 13.851562 34.050781 13.601562 33.601562 13.199219 33.25 C 12.800781 32.898438 12.25 32.75 11.699219 32.800781 C 10.898438 32.898438 10.199219 33.5 10.050781 34.300781 C 10 34.550781 10 34.800781 10.050781 35.050781 C 10.050781 35.148438 10 35.25 9.898438 35.300781 C 9.800781 35.351562 9.699219 35.351562 9.601562 35.25 C 9.398438 35 9.101562 34.898438 8.800781 34.898438 C 8.199219 34.898438 7.75 35.351562 7.699219 35.898438 C 7.699219 35.949219 7.648438 36.050781 7.601562 36.101562 C 7.550781 36.148438 7.449219 36.148438 7.398438 36.148438 C 7.101562 36.101562 6.800781 36.101562 6.5 36.199219 C 5.851562 36.449219 5.449219 37 5.398438 37.648438 C 5.398438 38.101562 5.550781 38.5 5.851562 38.800781 C 6.148438 39.148438 6.601562 39.300781 7.050781 39.300781 L 11.449219 39.300781 C 11.601562 39.300781 11.699219 39.398438 11.699219 39.550781 C 11.699219 39.699219 11.601562 39.800781 11.449219 39.800781 L 7.050781 39.800781 C 6.449219 39.800781 5.898438 39.550781 5.5 39.148438 C 5.101562 38.75 4.898438 38.199219 4.898438 37.601562 C 4.949219 36.75 5.5 36 6.300781 35.699219 C 6.601562 35.601562 6.898438 35.550781 7.25 35.601562 C 7.398438 34.898438 8.050781 34.398438 8.800781 34.398438 C 9.050781 34.398438 9.300781 34.449219 9.5 34.550781 C 9.5 34.449219 9.5 34.300781 9.550781 34.199219 C 9.75 33.199219 10.601562 32.398438 11.648438 32.300781 C 12.351562 32.199219 13 32.398438 13.5 32.851562 C 13.851562 33.148438 14.148438 33.550781 14.25 34 C 14.648438 33.699219 15.148438 33.5 15.648438 33.5 C 16.898438 33.5 17.898438 34.5 17.898438 35.699219 C 17.898438 35.699219 17.898438 35.75 17.898438 35.75 C 18.800781 36.050781 19.398438 36.851562 19.398438 37.75 C 19.5 38.949219 18.550781 39.898438 17.351562 39.898438 Z M 12.550781 39.898438 L 12.351562 39.898438 C 12.199219 39.898438 12.101562 39.800781 12.101562 39.648438 C 12.101562 39.5 12.199219 39.398438 12.351562 39.398438 L 12.550781 39.398438 C 12.699219 39.398438 12.800781 39.5 12.800781 39.648438 C 12.800781 39.800781 12.648438 39.898438 12.550781 39.898438 Z M 12.550781 39.898438 "/>
<path style=" stroke:none;fill-rule:nonzero;fill:rgb(27.843137%,16.862745%,16.078431%);fill-opacity:1;" d="M 16.5 37 C 16.398438 37 16.351562 36.898438 16.398438 36.851562 C 16.398438 36.75 16.449219 36.699219 16.5 36.601562 C 16.800781 36 17.648438 35.75 18.351562 36.101562 C 18.398438 36.148438 18.449219 36.199219 18.398438 36.25 C 18.351562 36.300781 18.300781 36.351562 18.25 36.300781 C 17.648438 36 16.949219 36.199219 16.699219 36.699219 C 16.648438 36.75 16.648438 36.800781 16.648438 36.898438 C 16.601562 36.949219 16.550781 37 16.5 37 Z M 16.5 37 "/>
<path style=" stroke:none;fill-rule:nonzero;fill:rgb(27.843137%,16.862745%,16.078431%);fill-opacity:1;" d="M 13.949219 39.898438 L 13.398438 39.898438 C 13.25 39.898438 13.148438 39.800781 13.148438 39.648438 C 13.148438 39.5 13.25 39.398438 13.398438 39.398438 L 13.949219 39.398438 C 14.101562 39.398438 14.199219 39.5 14.199219 39.648438 C 14.199219 39.800781 14.050781 39.898438 13.949219 39.898438 Z M 13.949219 39.898438 "/>
<path style=" stroke:none;fill-rule:nonzero;fill:rgb(100%,100%,100%);fill-opacity:1;" d="M 8.199219 26 L 3.25 26 C 3.101562 26 3 25.898438 3 25.75 C 3 25.601562 3.101562 25.5 3.25 25.5 L 8.199219 25.5 C 8.351562 25.5 8.449219 25.601562 8.449219 25.75 C 8.449219 25.898438 8.351562 26 8.199219 26 Z M 9.75 26 L 9.25 26 C 9.101562 26 9 25.898438 9 25.75 C 9 25.601562 9.101562 25.5 9.25 25.5 L 9.75 25.5 C 9.898438 25.5 10 25.601562 10 25.75 C 10 25.898438 9.898438 26 9.75 26 Z M 12.25 27 L 7.75 27 C 7.601562 27 7.5 26.898438 7.5 26.75 C 7.5 26.601562 7.601562 26.5 7.75 26.5 L 12.25 26.5 C 12.398438 26.5 12.5 26.601562 12.5 26.75 C 12.5 26.898438 12.398438 27 12.25 27 Z M 6.75 27 L 6.25 27 C 6.101562 27 6 26.898438 6 26.75 C 6 26.601562 6.101562 26.5 6.25 26.5 L 6.75 26.5 C 6.898438 26.5 7 26.601562 7 26.75 C 7 26.898438 6.898438 27 6.75 27 Z M 5.25 27 L 4.25 27 C 4.101562 27 4 26.898438 4 26.75 C 4 26.601562 4.101562 26.5 4.25 26.5 L 5.25 26.5 C 5.398438 26.5 5.5 26.601562 5.5 26.75 C 5.5 26.898438 5.398438 27 5.25 27 Z M 8.25 28 L 7.25 28 C 7.101562 28 7 27.898438 7 27.75 C 7 27.601562 7.101562 27.5 7.25 27.5 L 8.25 27.5 C 8.398438 27.5 8.5 27.601562 8.5 27.75 C 8.5 27.898438 8.398438 28 8.25 28 Z M 9.75 23.5 C 9.648438 23.5 9.351562 23.5 9.25 23.5 C 9.101562 23.5 9 23.601562 9 23.75 C 9 23.898438 9.101562 24 9.25 24 C 9.351562 24 9.648438 24 9.75 24 C 9.898438 24 10 23.898438 10 23.75 C 10 23.601562 9.898438 23.5 9.75 23.5 Z M 9.75 24.5 C 9.648438 24.5 7.351562 24.5 7.25 24.5 C 7.101562 24.5 7 24.601562 7 24.75 C 7 24.898438 7.101562 25 7.25 25 C 7.351562 25 9.648438 25 9.75 25 C 9.898438 25 10 24.898438 10 24.75 C 10 24.601562 9.898438 24.5 9.75 24.5 Z M 12.25 25.5 C 12.148438 25.5 10.851562 25.5 10.75 25.5 C 10.601562 25.5 10.5 25.601562 10.5 25.75 C 10.5 25.898438 10.601562 26 10.75 26 C 10.851562 26 12.148438 26 12.25 26 C 12.398438 26 12.5 25.898438 12.5 25.75 C 12.5 25.601562 12.398438 25.5 12.25 25.5 Z M 12.25 25.5 "/>
<path style=" stroke:none;fill-rule:nonzero;fill:rgb(100%,100%,100%);fill-opacity:1;" d="M 42.75 29 L 37.75 29 C 37.601562 29 37.5 28.898438 37.5 28.75 C 37.5 28.601562 37.601562 28.5 37.75 28.5 L 42.75 28.5 C 42.898438 28.5 43 28.601562 43 28.75 C 43 28.898438 42.898438 29 42.75 29 Z M 44.75 29 L 43.75 29 C 43.601562 29 43.5 28.898438 43.5 28.75 C 43.5 28.601562 43.601562 28.5 43.75 28.5 L 44.75 28.5 C 44.898438 28.5 45 28.601562 45 28.75 C 45 28.898438 44.898438 29 44.75 29 Z M 47.25 30 L 42.25 30 C 42.101562 30 42 29.898438 42 29.75 C 42 29.601562 42.101562 29.5 42.25 29.5 L 47.25 29.5 C 47.398438 29.5 47.5 29.601562 47.5 29.75 C 47.5 29.898438 47.398438 30 47.25 30 Z M 41.25 30 L 40.75 30 C 40.601562 30 40.5 29.898438 40.5 29.75 C 40.5 29.601562 40.601562 29.5 40.75 29.5 L 41.25 29.5 C 41.398438 29.5 41.5 29.601562 41.5 29.75 C 41.5 29.898438 41.398438 30 41.25 30 Z M 39.699219 30 L 38.75 30 C 38.601562 30 38.5 29.898438 38.5 29.75 C 38.5 29.601562 38.601562 29.5 38.75 29.5 L 39.699219 29.5 C 39.851562 29.5 39.949219 29.601562 39.949219 29.75 C 39.949219 29.898438 39.851562 30 39.699219 30 Z M 44.25 28 L 41.75 28 C 41.601562 28 41.5 27.898438 41.5 27.75 C 41.5 27.601562 41.601562 27.5 41.75 27.5 L 44.25 27.5 C 44.398438 27.5 44.5 27.601562 44.5 27.75 C 44.5 27.898438 44.398438 28 44.25 28 Z M 42.75 31 L 41.75 31 C 41.601562 31 41.5 30.898438 41.5 30.75 C 41.5 30.601562 41.601562 30.5 41.75 30.5 L 42.75 30.5 C 42.898438 30.5 43 30.601562 43 30.75 C 43 30.898438 42.898438 31 42.75 31 Z M 42.75 31 "/>
<path style=" stroke:none;fill-rule:nonzero;fill:rgb(53.333333%,53.72549%,72.54902%);fill-opacity:1;" d="M 29.449219 27.851562 L 17.449219 28.5 L 16.300781 20.75 L 31 20.851562 Z M 29.449219 27.851562 "/>
<path style=" stroke:none;fill-rule:nonzero;fill:rgb(27.843137%,16.862745%,16.078431%);fill-opacity:1;" d="M 17.449219 28.851562 C 17.300781 28.851562 17.148438 28.699219 17.101562 28.550781 L 16 20.800781 C 16 20.699219 16 20.601562 16.101562 20.5 C 16.148438 20.398438 16.25 20.398438 16.351562 20.398438 L 31 20.5 C 31.101562 20.5 31.199219 20.550781 31.25 20.648438 C 31.300781 20.75 31.351562 20.851562 31.300781 20.949219 L 29.75 28 C 29.699219 28.148438 29.601562 28.25 29.449219 28.25 Z M 16.75 21.101562 L 17.75 28.101562 L 29.199219 27.5 L 30.601562 21.148438 Z M 29.449219 27.851562 Z M 29.449219 27.851562 "/>
<path style=" stroke:none;fill-rule:nonzero;fill:rgb(27.843137%,16.862745%,16.078431%);fill-opacity:1;" d="M 20.050781 21.148438 L 16.300781 21.148438 C 16.148438 21.148438 16 21 15.949219 20.851562 L 15.75 19.550781 C 15.550781 17.699219 14.648438 17.601562 14.601562 17.601562 C 14.398438 17.601562 14.25 17.398438 14.25 17.25 C 14.25 17.101562 14.398438 16.949219 14.550781 16.898438 C 14.449219 16.851562 14.398438 16.699219 14.398438 16.601562 C 14.398438 16.398438 14.601562 16.25 14.800781 16.300781 L 18.25 16.550781 C 18.25 16.550781 19 16.550781 19.648438 17.199219 C 20.199219 17.75 20.398438 18.601562 20.351562 19.648438 L 20.351562 20.75 C 20.351562 20.851562 20.300781 20.949219 20.25 21 C 20.25 21.101562 20.148438 21.148438 20.050781 21.148438 Z M 16.648438 20.398438 L 19.75 20.398438 L 19.75 19.601562 C 19.800781 18.699219 19.601562 18.050781 19.199219 17.648438 C 18.800781 17.25 18.300781 17.199219 18.300781 17.199219 L 15.101562 17 C 15.601562 17.199219 16.300781 17.75 16.5 19.449219 Z M 16.648438 20.398438 "/>
<path style=" stroke:none;fill-rule:nonzero;fill:rgb(93.72549%,60%,13.333333%);fill-opacity:1;" d="M 14.851562 16.300781 L 13.601562 16.300781 C 13.351562 16.300781 13.148438 16.5 13.148438 16.75 L 13.148438 17.050781 C 13.199219 17.300781 13.351562 17.398438 13.601562 17.398438 L 14.851562 17.398438 Z M 14.851562 16.300781 "/>
<path style=" stroke:none;fill-rule:nonzero;fill:rgb(27.843137%,16.862745%,16.078431%);fill-opacity:1;" d="M 14.851562 17.601562 L 13.601562 17.601562 C 13.101562 17.601562 13 17.25 12.949219 17.101562 L 12.949219 16.800781 C 12.949219 16.648438 13 16.5 13.101562 16.351562 C 13.199219 16.199219 13.398438 16.148438 13.601562 16.148438 L 14.851562 16.148438 C 14.949219 16.148438 15.050781 16.25 15.050781 16.351562 L 15.050781 17.449219 C 15.050781 17.5 14.949219 17.601562 14.851562 17.601562 Z M 13.648438 16.5 C 13.550781 16.5 13.5 16.550781 13.449219 16.601562 C 13.398438 16.648438 13.398438 16.699219 13.398438 16.75 L 13.398438 17.050781 C 13.398438 17.101562 13.398438 17.199219 13.648438 17.199219 L 14.699219 17.199219 L 14.699219 16.5 Z M 13.648438 16.5 "/>
<path style=" stroke:none;fill-rule:nonzero;fill:rgb(53.333333%,53.72549%,72.54902%);fill-opacity:1;" d="M 20.550781 32.101562 C 20.699219 32.25 20.75 32.449219 20.800781 32.648438 C 20.851562 33.25 20.351562 33.800781 19.699219 33.898438 C 19.050781 33.949219 18.449219 33.550781 18.351562 32.949219 C 18.300781 32.550781 18.5 32.199219 18.800781 32 "/>
<path style=" stroke:none;fill-rule:nonzero;fill:rgb(27.843137%,16.862745%,16.078431%);fill-opacity:1;" d="M 19.550781 34.101562 C 18.851562 34.101562 18.25 33.601562 18.148438 32.949219 C 18.101562 32.5 18.300781 32.101562 18.648438 31.800781 C 18.75 31.75 18.851562 31.75 18.898438 31.851562 C 18.949219 31.949219 18.949219 32.050781 18.851562 32.101562 C 18.601562 32.300781 18.449219 32.601562 18.5 32.898438 C 18.550781 33.398438 19.050781 33.75 19.648438 33.699219 C 20.199219 33.648438 20.648438 33.199219 20.601562 32.648438 C 20.601562 32.5 20.5 32.351562 20.398438 32.199219 C 20.351562 32.101562 20.351562 32 20.398438 31.949219 C 20.5 31.898438 20.601562 31.898438 20.648438 31.949219 C 20.800781 32.148438 20.898438 32.351562 20.949219 32.601562 C 21.050781 33.300781 20.449219 33.949219 19.699219 34.050781 C 19.648438 34.101562 19.601562 34.101562 19.550781 34.101562 Z M 19.550781 34.101562 "/>
<path style=" stroke:none;fill-rule:nonzero;fill:rgb(94.509804%,73.72549%,9.803922%);fill-opacity:1;" d="M 20.101562 32.851562 C 19.5 33.300781 19 33.199219 19 33.199219 L 18.800781 31.148438 L 20.550781 31.148438 C 20.550781 31.148438 20.648438 32.398438 20.101562 32.851562 Z M 20.101562 32.851562 "/>
<path style=" stroke:none;fill-rule:nonzero;fill:rgb(27.843137%,16.862745%,16.078431%);fill-opacity:1;" d="M 19.101562 33.398438 C 19 33.398438 18.949219 33.398438 18.949219 33.398438 C 18.851562 33.398438 18.800781 33.300781 18.800781 33.25 L 18.601562 31.199219 C 18.601562 31.148438 18.601562 31.101562 18.648438 31.050781 C 18.699219 31 18.75 31 18.800781 31 L 20.550781 31 C 20.601562 31 20.699219 31.050781 20.699219 31.101562 C 20.75 31.148438 20.851562 32.449219 20.148438 33 C 19.75 33.351562 19.351562 33.398438 19.101562 33.398438 Z M 19.050781 31.351562 L 19.199219 33.050781 C 19.351562 33.050781 19.648438 33 20 32.699219 C 20.351562 32.398438 20.398438 31.75 20.398438 31.351562 Z M 20.101562 32.851562 Z M 20.101562 32.851562 "/>
<path style=" stroke:none;fill-rule:nonzero;fill:rgb(99.215686%,98.823529%,93.333333%);fill-opacity:1;" d="M 19.648438 32.5 C 19.5 32.5 19.398438 32.398438 19.398438 32.25 C 19.398438 32.101562 19.5 32 19.648438 32 C 19.800781 32 19.898438 32.101562 19.898438 32.25 C 19.898438 32.398438 19.800781 32.5 19.648438 32.5 Z M 19.648438 32.5 "/>
<path style=" stroke:none;fill-rule:nonzero;fill:rgb(27.843137%,16.862745%,16.078431%);fill-opacity:1;" d="M 19.648438 32.101562 C 19.75 32.101562 19.800781 32.148438 19.800781 32.25 C 19.800781 32.351562 19.75 32.398438 19.648438 32.398438 C 19.550781 32.398438 19.5 32.300781 19.5 32.25 C 19.5 32.199219 19.550781 32.101562 19.648438 32.101562 M 19.648438 31.851562 C 19.449219 31.851562 19.25 32 19.25 32.25 C 19.25 32.5 19.398438 32.648438 19.648438 32.648438 C 19.898438 32.648438 20.050781 32.5 20.050781 32.25 C 20.050781 32 19.851562 31.851562 19.648438 31.851562 Z M 19.648438 31.851562 "/>
<path style=" stroke:none;fill-rule:nonzero;fill:rgb(75.294118%,89.803922%,89.411765%);fill-opacity:1;" d="M 28.050781 32.148438 C 28.148438 32.300781 28.25 32.550781 28.25 32.75 C 28.25 33.398438 27.699219 33.898438 27 33.898438 C 26.300781 33.898438 25.75 33.398438 25.75 32.75 C 25.75 32.351562 25.949219 32 26.300781 31.800781 "/>
<path style=" stroke:none;fill-rule:nonzero;fill:rgb(27.843137%,16.862745%,16.078431%);fill-opacity:1;" d="M 26.949219 34.101562 C 26.148438 34.101562 25.5 33.5 25.5 32.75 C 25.5 32.300781 25.75 31.898438 26.148438 31.648438 C 26.25 31.601562 26.351562 31.601562 26.398438 31.699219 C 26.449219 31.800781 26.449219 31.898438 26.351562 31.949219 C 26.050781 32.148438 25.898438 32.398438 25.898438 32.75 C 25.898438 33.300781 26.398438 33.699219 26.949219 33.699219 C 27.5 33.699219 28 33.25 28 32.75 C 28 32.601562 27.949219 32.398438 27.851562 32.25 C 27.800781 32.148438 27.800781 32.050781 27.898438 32 C 28 31.949219 28.101562 31.949219 28.148438 32.050781 C 28.300781 32.25 28.351562 32.5 28.351562 32.75 C 28.398438 33.5 27.75 34.101562 26.949219 34.101562 Z M 26.949219 34.101562 "/>
<path style=" stroke:none;fill-rule:nonzero;fill:rgb(94.509804%,73.72549%,9.803922%);fill-opacity:1;" d="M 27.601562 32.601562 C 27 33.050781 26.5 32.949219 26.5 32.949219 L 26.300781 30.898438 L 28.050781 30.898438 C 28.050781 30.898438 28.148438 32.101562 27.601562 32.601562 Z M 27.601562 32.601562 "/>
<path style=" stroke:none;fill-rule:nonzero;fill:rgb(27.843137%,16.862745%,16.078431%);fill-opacity:1;" d="M 26.601562 33.148438 C 26.5 33.148438 26.449219 33.148438 26.449219 33.148438 C 26.351562 33.148438 26.300781 33.050781 26.300781 33 L 26.101562 30.949219 C 26.101562 30.898438 26.101562 30.851562 26.148438 30.800781 C 26.199219 30.75 26.25 30.75 26.300781 30.75 L 28.050781 30.75 C 28.148438 30.75 28.199219 30.800781 28.25 30.898438 C 28.25 30.898438 28.351562 32.25 27.699219 32.75 C 27.25 33.101562 26.851562 33.148438 26.601562 33.148438 Z M 26.550781 31.101562 L 26.699219 32.800781 C 26.851562 32.800781 27.148438 32.75 27.5 32.449219 C 27.898438 32.148438 27.898438 31.449219 27.898438 31.101562 Z M 27.601562 32.601562 Z M 27.601562 32.601562 "/>
<path style=" stroke:none;fill-rule:nonzero;fill:rgb(99.215686%,98.823529%,93.333333%);fill-opacity:1;" d="M 27.25 32.25 C 27.199219 32.25 27.148438 32.25 27.101562 32.199219 C 27 32.148438 27 32.101562 26.949219 32 C 26.949219 31.949219 26.949219 31.851562 27 31.800781 C 27.050781 31.75 27.148438 31.699219 27.199219 31.699219 C 27.25 31.699219 27.300781 31.699219 27.351562 31.75 C 27.398438 31.800781 27.449219 31.851562 27.449219 31.898438 C 27.449219 31.949219 27.449219 32.050781 27.398438 32.101562 C 27.398438 32.199219 27.300781 32.25 27.25 32.25 Z M 27.25 32.25 "/>
<path style=" stroke:none;fill-rule:nonzero;fill:rgb(27.843137%,16.862745%,16.078431%);fill-opacity:1;" d="M 27.25 31.851562 C 27.300781 31.851562 27.300781 31.851562 27.351562 31.851562 C 27.398438 31.898438 27.449219 32 27.398438 32.050781 C 27.351562 32.101562 27.351562 32.101562 27.300781 32.101562 C 27.25 32.101562 27.25 32.101562 27.199219 32.050781 C 27.148438 32 27.101562 31.898438 27.148438 31.851562 C 27.148438 31.851562 27.199219 31.851562 27.25 31.851562 M 27.25 31.601562 C 27.148438 31.601562 27 31.648438 26.949219 31.75 C 26.898438 31.851562 26.851562 31.949219 26.898438 32.050781 C 26.898438 32.148438 27 32.25 27.050781 32.300781 C 27.101562 32.351562 27.199219 32.351562 27.25 32.351562 C 27.351562 32.351562 27.5 32.300781 27.550781 32.199219 C 27.601562 32.101562 27.648438 32 27.601562 31.898438 C 27.601562 31.800781 27.5 31.699219 27.449219 31.648438 C 27.398438 31.601562 27.300781 31.601562 27.25 31.601562 Z M 27.25 31.601562 "/>
<path style=" stroke:none;fill-rule:nonzero;fill:rgb(27.843137%,16.862745%,16.078431%);fill-opacity:1;" d="M 19.351562 22.648438 C 19.300781 22.648438 19.25 22.601562 19.199219 22.550781 C 19.148438 22.5 19.25 22.398438 19.300781 22.398438 L 30.550781 22.300781 C 30.601562 22.300781 30.699219 22.351562 30.699219 22.398438 C 30.699219 22.449219 30.648438 22.550781 30.601562 22.550781 Z M 19.351562 22.648438 "/>
<path style=" stroke:none;fill-rule:nonzero;fill:rgb(27.843137%,16.862745%,16.078431%);fill-opacity:1;" d="M 17.398438 22.648438 C 17.351562 22.648438 17.300781 22.601562 17.25 22.550781 C 17.199219 22.5 17.300781 22.398438 17.351562 22.398438 L 18.449219 22.398438 C 18.5 22.398438 18.550781 22.449219 18.601562 22.5 C 18.648438 22.550781 18.550781 22.648438 18.5 22.648438 Z M 17.398438 22.648438 "/>
<path style=" stroke:none;fill-rule:nonzero;fill:rgb(27.843137%,16.862745%,16.078431%);fill-opacity:1;" d="M 16.851562 24 C 16.800781 24 16.75 23.949219 16.699219 23.898438 C 16.699219 23.851562 16.75 23.75 16.800781 23.75 L 30.300781 23.601562 C 30.351562 23.601562 30.398438 23.648438 30.449219 23.699219 C 30.449219 23.75 30.398438 23.851562 30.351562 23.851562 Z M 16.851562 24 "/>
<path style=" stroke:none;fill-rule:nonzero;fill:rgb(27.843137%,16.862745%,16.078431%);fill-opacity:1;" d="M 17.101562 25.449219 C 17.050781 25.449219 17 25.398438 16.949219 25.351562 C 16.949219 25.300781 17 25.199219 17.050781 25.199219 L 30 24.898438 C 30.050781 24.898438 30.148438 24.949219 30.148438 25 C 30.148438 25.050781 30.101562 25.148438 30.050781 25.148438 Z M 17.101562 25.449219 "/>
<path style=" stroke:none;fill-rule:nonzero;fill:rgb(27.843137%,16.862745%,16.078431%);fill-opacity:1;" d="M 27.199219 26.699219 C 27.148438 26.699219 27.101562 26.648438 27.050781 26.601562 C 27.050781 26.550781 27.101562 26.449219 27.148438 26.449219 L 28.949219 26.398438 C 29 26.398438 29.101562 26.449219 29.101562 26.5 C 29.101562 26.550781 29.050781 26.648438 29 26.648438 Z M 27.199219 26.699219 "/>
<path style=" stroke:none;fill-rule:nonzero;fill:rgb(27.843137%,16.862745%,16.078431%);fill-opacity:1;" d="M 17.398438 26.898438 C 17.351562 26.898438 17.300781 26.851562 17.25 26.800781 C 17.25 26.75 17.300781 26.648438 17.351562 26.648438 L 26.300781 26.449219 C 26.398438 26.449219 26.449219 26.5 26.449219 26.550781 C 26.449219 26.601562 26.398438 26.699219 26.351562 26.699219 Z M 17.398438 26.898438 "/>
<path style=" stroke:none;fill-rule:nonzero;fill:rgb(27.843137%,16.862745%,16.078431%);fill-opacity:1;" d="M 17.101562 31 C 16.898438 31 16.75 30.851562 16.75 30.699219 C 16.75 30.699219 16.75 30.648438 16.75 30.050781 C 16.75 28.949219 18.449219 28.25 18.648438 28.148438 C 18.851562 28.101562 19.050781 28.148438 19.101562 28.351562 C 19.148438 28.550781 19.101562 28.75 18.898438 28.800781 C 18.449219 29 17.449219 29.550781 17.449219 30.050781 C 17.449219 30.148438 17.449219 30.25 17.449219 30.300781 L 28.75 30.25 C 28.949219 30.25 29.101562 30.398438 29.101562 30.601562 C 29.101562 30.800781 28.949219 30.949219 28.75 30.949219 Z M 17.101562 31 "/>
<path style=" stroke:none;fill-rule:nonzero;fill:rgb(27.843137%,16.862745%,16.078431%);fill-opacity:1;" d="M 28.101562 28.050781 C 28.050781 28.050781 28.050781 28.050781 28.101562 28.050781 C 28 28.050781 27.949219 27.949219 28 27.898438 L 29.601562 20.75 C 29.601562 20.699219 29.699219 20.648438 29.75 20.648438 C 29.800781 20.648438 29.851562 20.75 29.851562 20.800781 L 28.25 27.949219 C 28.199219 28.050781 28.148438 28.050781 28.101562 28.050781 Z M 28.101562 28.050781 "/>
<path style=" stroke:none;fill-rule:nonzero;fill:rgb(27.843137%,16.862745%,16.078431%);fill-opacity:1;" d="M 26.800781 28.050781 C 26.699219 28.050781 26.648438 27.949219 26.699219 27.898438 L 28.300781 20.75 C 28.300781 20.699219 28.398438 20.648438 28.449219 20.648438 C 28.5 20.648438 28.550781 20.75 28.550781 20.800781 L 26.949219 27.949219 C 26.898438 28.050781 26.851562 28.050781 26.800781 28.050781 Z M 26.800781 28.050781 "/>
<path style=" stroke:none;fill-rule:nonzero;fill:rgb(27.843137%,16.862745%,16.078431%);fill-opacity:1;" d="M 25.550781 28.050781 C 25.5 28.050781 25.5 28.050781 25.550781 28.050781 C 25.449219 28.050781 25.398438 27.949219 25.449219 27.898438 L 27 20.75 C 27 20.699219 27.101562 20.648438 27.148438 20.648438 C 27.199219 20.648438 27.25 20.75 27.25 20.800781 L 25.648438 27.949219 C 25.648438 28.050781 25.601562 28.050781 25.550781 28.050781 Z M 25.550781 28.050781 "/>
<path style=" stroke:none;fill-rule:nonzero;fill:rgb(27.843137%,16.862745%,16.078431%);fill-opacity:1;" d="M 24.398438 28.050781 C 24.300781 28.050781 24.25 27.949219 24.300781 27.898438 L 25.898438 20.75 C 25.898438 20.699219 26 20.648438 26.050781 20.648438 C 26.101562 20.648438 26.148438 20.75 26.148438 20.800781 L 24.550781 27.949219 C 24.550781 28.050781 24.5 28.050781 24.398438 28.050781 Z M 24.398438 28.050781 "/>
<path style=" stroke:none;fill-rule:nonzero;fill:rgb(27.843137%,16.862745%,16.078431%);fill-opacity:1;" d="M 23.550781 26.25 C 23.449219 26.25 23.398438 26.148438 23.449219 26.101562 L 24.648438 20.75 C 24.648438 20.699219 24.75 20.648438 24.800781 20.648438 C 24.851562 20.648438 24.898438 20.75 24.898438 20.800781 L 23.699219 26.148438 C 23.648438 26.199219 23.601562 26.25 23.550781 26.25 Z M 23.550781 26.25 "/>
<path style=" stroke:none;fill-rule:nonzero;fill:rgb(27.843137%,16.862745%,16.078431%);fill-opacity:1;" d="M 22.800781 23.949219 C 22.800781 23.949219 22.75 23.949219 22.800781 23.949219 C 22.699219 23.949219 22.648438 23.851562 22.699219 23.800781 L 23.351562 20.75 C 23.351562 20.699219 23.449219 20.648438 23.5 20.648438 C 23.550781 20.648438 23.601562 20.75 23.601562 20.800781 L 22.949219 23.851562 C 22.898438 23.898438 22.851562 23.949219 22.800781 23.949219 Z M 22.800781 23.949219 "/>
<path style=" stroke:none;fill-rule:nonzero;fill:rgb(84.705882%,67.843137%,56.078431%);fill-opacity:1;" d="M 36.050781 23 C 36.101562 22.449219 35.949219 22 35.949219 21.75 C 35.5 21.148438 35.199219 20.449219 34.5 20.050781 C 33.800781 19.601562 32.898438 19.25 32.101562 19.050781 C 30.050781 18.550781 28.101562 20 27.449219 21.949219 C 27.449219 21.949219 27.449219 21.949219 27.449219 22 C 27.550781 22.449219 27.601562 22.851562 27.601562 23.050781 C 27.050781 23.050781 26.75 23.351562 26.949219 23.898438 C 26.949219 23.898438 27.148438 24.851562 27.300781 25.300781 C 27.398438 25.601562 27.550781 25.699219 27.851562 25.75 C 27.851562 26.050781 27.851562 26.351562 27.851562 26.648438 C 27.851562 27 27.949219 27.351562 28.148438 27.648438 C 28.699219 28.398438 31.449219 30.199219 32.101562 30.148438 C 33.199219 30.148438 35.300781 28.300781 35.851562 27.398438 C 35.949219 27.25 36 27 36 26.800781 C 36 26.449219 36 26.101562 36 25.75 C 36.199219 25.699219 36.351562 25.601562 36.449219 25.351562 C 36.601562 24.898438 36.800781 24 36.800781 23.949219 C 37 23.300781 36.601562 23 36.050781 23 Z M 36.050781 23 "/>
<use xlink:href="#surface1209" mask="url(#mask0)"/>
<path style=" stroke:none;fill-rule:nonzero;fill:rgb(27.843137%,16.862745%,16.078431%);fill-opacity:1;" d="M 27.949219 26 C 27.898438 26 27.851562 25.949219 27.851562 25.898438 L 27.550781 23.050781 C 27.550781 23 27.601562 22.949219 27.648438 22.949219 C 27.699219 22.949219 27.75 23 27.75 23.050781 L 28.050781 25.898438 C 28.050781 25.949219 28 26 27.949219 26 Z M 35.949219 25.851562 C 35.898438 25.851562 35.851562 25.800781 35.851562 25.75 L 36 22.898438 C 36 22.851562 36.050781 22.800781 36.101562 22.800781 C 36.148438 22.800781 36.199219 22.851562 36.199219 22.898438 L 36.050781 25.75 C 36.050781 25.800781 36 25.851562 35.949219 25.851562 Z M 35.949219 25.851562 "/>
<path style=" stroke:none;fill-rule:nonzero;fill:rgb(42.745098%,10.588235%,9.411765%);fill-opacity:1;" d="M 30.75 27.550781 C 30.75 27.601562 30.75 27.648438 30.75 27.699219 C 30.75 28.199219 31.300781 28.601562 32 28.601562 C 32.699219 28.601562 33.25 28.199219 33.25 27.699219 C 33.25 27.648438 33.25 27.601562 33.25 27.550781 Z M 30.75 27.550781 "/>
<path style=" stroke:none;fill-rule:nonzero;fill:rgb(93.333333%,24.313725%,32.941176%);fill-opacity:1;" d="M 32.648438 28.5 C 32.550781 28.351562 32.300781 28.300781 32 28.300781 C 31.699219 28.300781 31.449219 28.398438 31.351562 28.5 C 31.550781 28.601562 31.75 28.648438 32 28.648438 C 32.25 28.648438 32.449219 28.550781 32.648438 28.5 Z M 32.648438 28.5 "/>
<path style=" stroke:none;fill-rule:nonzero;fill:rgb(99.215686%,98.823529%,93.72549%);fill-opacity:1;" d="M 31.101562 27.550781 L 31.101562 27.699219 C 31.101562 27.851562 31.25 27.949219 31.5 27.949219 L 32.449219 27.949219 C 32.648438 27.949219 32.851562 27.851562 32.851562 27.699219 L 32.851562 27.550781 Z M 31.101562 27.550781 "/>
<path style=" stroke:none;fill-rule:nonzero;fill:rgb(27.843137%,16.862745%,16.078431%);fill-opacity:1;" d="M 32 28.75 C 31.25 28.75 30.648438 28.300781 30.648438 27.75 C 30.648438 27.699219 30.648438 27.601562 30.699219 27.550781 C 30.699219 27.5 30.75 27.5 30.800781 27.5 L 33.199219 27.5 C 33.25 27.5 33.300781 27.550781 33.300781 27.601562 C 33.300781 27.648438 33.351562 27.75 33.351562 27.800781 C 33.300781 28.300781 32.699219 28.75 32 28.75 Z M 30.851562 27.648438 C 30.851562 27.648438 30.851562 27.699219 30.851562 27.699219 C 30.851562 28.148438 31.351562 28.5 32 28.5 C 32.648438 28.5 33.148438 28.148438 33.148438 27.699219 C 33.148438 27.699219 33.148438 27.648438 33.148438 27.648438 Z M 30.851562 27.648438 "/>
<use xlink:href="#surface1212" mask="url(#mask2)"/>
<path style=" stroke:none;fill-rule:nonzero;fill:rgb(31.764706%,17.254902%,16.862745%);fill-opacity:1;" d="M 31.25 22.601562 C 30.550781 22.351562 29.351562 22.25 28.601562 22.300781 C 28.550781 22.300781 28.550781 22.351562 28.550781 22.351562 C 28.550781 22.398438 28.601562 22.398438 28.601562 22.398438 C 28.601562 22.398438 30.398438 22.699219 30.949219 22.898438 C 30.949219 22.898438 30.949219 22.898438 31 22.898438 C 31.050781 22.898438 31.050781 22.898438 31.050781 22.851562 L 31.25 22.601562 C 31.25 22.601562 31.25 22.550781 31.25 22.550781 C 31.300781 22.648438 31.25 22.601562 31.25 22.601562 Z M 32.648438 22.550781 C 33.351562 22.351562 34.601562 22.300781 35.300781 22.398438 C 35.351562 22.398438 35.351562 22.449219 35.351562 22.449219 C 35.351562 22.5 35.300781 22.5 35.300781 22.5 C 35.300781 22.5 33.5 22.699219 32.898438 22.898438 C 32.898438 22.898438 32.898438 22.898438 32.851562 22.898438 C 32.800781 22.898438 32.800781 22.898438 32.800781 22.851562 L 32.601562 22.601562 C 32.601562 22.601562 32.601562 22.550781 32.601562 22.550781 C 32.648438 22.550781 32.648438 22.550781 32.648438 22.550781 Z M 32.648438 22.550781 "/>
<path style=" stroke:none;fill-rule:nonzero;fill:rgb(27.843137%,16.862745%,16.078431%);fill-opacity:1;" d="M 30 23.351562 C 29.800781 23.351562 29.648438 23.449219 29.550781 23.648438 C 29.550781 23.648438 29.601562 23.648438 29.601562 23.648438 C 29.75 23.648438 29.851562 23.800781 29.851562 23.949219 C 29.851562 24.101562 29.75 24.25 29.601562 24.25 C 29.550781 24.25 29.5 24.25 29.449219 24.199219 C 29.5 24.449219 29.699219 24.648438 29.949219 24.648438 C 30.25 24.648438 30.449219 24.351562 30.449219 24 C 30.5 23.648438 30.25 23.351562 30 23.351562 Z M 33.898438 23.351562 C 33.75 23.351562 33.601562 23.449219 33.5 23.550781 C 33.550781 23.550781 33.550781 23.550781 33.601562 23.550781 C 33.75 23.550781 33.851562 23.699219 33.851562 23.851562 C 33.851562 24 33.75 24.148438 33.601562 24.148438 C 33.5 24.148438 33.449219 24.101562 33.398438 24 C 33.398438 24.351562 33.648438 24.648438 33.898438 24.648438 C 34.199219 24.648438 34.398438 24.351562 34.398438 24 C 34.398438 23.648438 34.199219 23.351562 33.898438 23.351562 Z M 33.898438 23.351562 "/>
<path style=" stroke:none;fill-rule:nonzero;fill:rgb(69.803922%,52.941176%,41.960784%);fill-opacity:1;" d="M 24.898438 34.5 L 38.949219 34.5 C 38.898438 33.050781 38.75 32.449219 37.648438 32.101562 C 37.601562 32.101562 37.601562 32.050781 37.550781 32.050781 C 37.5 32.050781 37.449219 32 37.351562 31.949219 C 36.898438 31.75 34.050781 30.800781 34.050781 30.800781 C 33.851562 30.75 33.699219 30.601562 33.601562 30.398438 C 33.449219 30.101562 33.5 29.351562 33.5 29.351562 C 33.5 29.351562 32.648438 29.75 32 29.851562 C 31.351562 29.898438 30.148438 29.050781 30.148438 29.050781 C 30.148438 29.050781 30.101562 30.148438 30.050781 30.351562 C 30 30.550781 29.800781 30.699219 29.601562 30.75 L 26.851562 31.648438 C 26.550781 31.699219 26.300781 31.851562 26.101562 31.949219 C 25.398438 32.398438 25.101562 33.101562 24.949219 33.601562 C 24.949219 33.648438 24.949219 33.699219 24.898438 33.800781 C 24.851562 34.050781 24.851562 34.25 24.851562 34.300781 C 24.898438 34.449219 24.898438 34.449219 24.898438 34.5 Z M 24.898438 34.5 "/>
<path style=" stroke:none;fill-rule:nonzero;fill:rgb(63.137255%,63.137255%,79.215686%);fill-opacity:1;" d="M 36.550781 34.5 L 36.351562 31.550781 L 34.699219 30.949219 C 33.601562 31.800781 29.699219 31.601562 29.148438 31.148438 L 27.351562 31.75 L 27.25 34.5 Z M 36.550781 34.5 "/>
<path style=" stroke:none;fill-rule:nonzero;fill:rgb(27.843137%,16.862745%,16.078431%);fill-opacity:1;" d="M 32.101562 30 C 31.398438 30 30.300781 29.398438 30.25 29.351562 C 30.199219 29.300781 30.148438 29.25 30.199219 29.199219 C 30.25 29.148438 30.300781 29.101562 30.351562 29.148438 C 30.351562 29.148438 31.550781 29.800781 32.148438 29.75 C 32.75 29.699219 33.648438 29.199219 33.648438 29.199219 C 33.699219 29.148438 33.800781 29.199219 33.800781 29.25 C 33.851562 29.300781 33.800781 29.398438 33.75 29.398438 C 33.699219 29.398438 32.800781 29.949219 32.148438 30 C 32.148438 30 32.148438 30 32.101562 30 Z M 32.101562 30 "/>
<path style=" stroke:none;fill-rule:nonzero;fill:rgb(22.745098%,13.333333%,12.941176%);fill-opacity:1;" d="M 35.199219 17.300781 C 35.199219 17.199219 35.199219 17.148438 35.148438 17.050781 C 35.148438 17 35.199219 16.898438 35.199219 16.800781 C 35.199219 16.351562 34.851562 15.949219 34.398438 15.800781 C 34.398438 15.199219 33.851562 14.75 33.199219 14.699219 C 33 14.300781 32.5 14 31.949219 14 C 31.449219 14 31 14.25 30.75 14.648438 C 30.648438 14.648438 30.550781 14.601562 30.449219 14.601562 C 29.851562 14.601562 29.300781 15.050781 29.300781 15.601562 C 29.300781 15.601562 29.300781 15.648438 29.300781 15.648438 C 28.75 15.800781 28.398438 16.25 28.398438 16.75 C 28.398438 17.050781 28.5 17.300781 28.699219 17.5 C 28.550781 17.648438 28.5 17.851562 28.5 18.101562 C 28.5 18.648438 29 19.101562 29.601562 19.101562 C 29.75 19.101562 29.898438 19.050781 30.050781 19 C 30.050781 19.449219 30.5 19.851562 31 19.851562 C 31.101562 19.851562 31.199219 19.851562 31.300781 19.800781 C 31.550781 20.101562 31.898438 20.25 32.351562 20.25 C 33 20.25 33.601562 19.800781 33.648438 19.199219 C 34.101562 19.050781 34.398438 18.648438 34.449219 18.199219 C 34.898438 18.148438 35.199219 17.75 35.199219 17.300781 Z M 35.199219 17.300781 "/>
<path style=" stroke:none;fill-rule:nonzero;fill:rgb(27.843137%,16.862745%,16.078431%);fill-opacity:1;" d="M 31.351562 23.199219 C 30.550781 22.25 27.550781 22.898438 27.550781 22.898438 C 27.601562 23.101562 27.648438 23.351562 27.699219 23.550781 C 27.898438 23.550781 27.949219 24.101562 27.949219 24.25 C 28.050781 25.148438 28.648438 25.800781 29.898438 25.75 C 31.148438 25.699219 31.449219 24.800781 31.5 24.199219 C 31.550781 23.601562 31.351562 23.199219 31.351562 23.199219 Z M 31.25 24.300781 C 31.199219 25.101562 30.699219 25.550781 29.898438 25.601562 C 29.800781 25.601562 29.75 25.601562 29.648438 25.601562 C 28.398438 25.601562 28.199219 24.5 28.148438 23.800781 C 28.148438 23.398438 28.398438 23.050781 28.800781 23.050781 C 29.050781 23.050781 29.300781 23.050781 29.601562 23.050781 C 30.550781 23.050781 30.949219 23.25 31.050781 23.449219 C 31.101562 23.5 31.25 23.851562 31.25 24.300781 Z M 32.25 24.25 C 32.300781 24.800781 32.601562 25.75 33.851562 25.800781 C 35.101562 25.851562 35.699219 25.199219 35.800781 24.300781 C 35.800781 24.101562 35.851562 23.601562 36.050781 23.601562 C 36.101562 23.398438 36.148438 23.148438 36.199219 22.949219 C 36.199219 22.949219 33.199219 22.25 32.398438 23.25 C 32.398438 23.199219 32.199219 23.601562 32.25 24.25 Z M 32.699219 23.398438 C 32.800781 23.199219 33.199219 23 34.148438 23 C 34.449219 23 34.699219 23 34.949219 23 C 35.351562 23.050781 35.648438 23.398438 35.601562 23.75 C 35.601562 24.449219 35.351562 25.550781 34.101562 25.550781 C 34.050781 25.550781 33.949219 25.550781 33.851562 25.550781 C 33.050781 25.5 32.550781 25.050781 32.5 24.25 C 32.5 23.851562 32.648438 23.5 32.699219 23.398438 Z M 32.699219 23.398438 "/>
<path style=" stroke:none;fill-rule:nonzero;fill:rgb(27.843137%,16.862745%,16.078431%);fill-opacity:1;" d="M 32.398438 23.949219 C 32.398438 23.949219 32.199219 23.800781 31.851562 23.800781 C 31.5 23.800781 31.351562 23.949219 31.351562 23.949219 C 31.300781 23.800781 31.25 23.648438 31.199219 23.5 C 31.648438 23.5 32.148438 23.5 32.601562 23.5 C 32.550781 23.648438 32.5 23.800781 32.398438 23.949219 Z M 32.398438 23.949219 "/>
<path style=" stroke:none;fill-rule:nonzero;fill:rgb(27.843137%,16.862745%,16.078431%);fill-opacity:1;" d="M 38.949219 34.5 L 25 34.5 C 24.949219 34.5 24.898438 34.5 24.851562 34.449219 C 24.800781 34.398438 24.800781 34.351562 24.800781 34.300781 C 25 33 25.449219 32.148438 26.101562 31.800781 C 26.398438 31.648438 26.648438 31.550781 26.898438 31.449219 L 29.648438 30.550781 C 29.800781 30.5 29.949219 30.398438 29.949219 30.300781 C 29.949219 30.199219 30 29.800781 30.050781 29.300781 C 29.25 28.800781 28.300781 28.101562 28 27.648438 C 27.75 27.300781 27.648438 26.949219 27.648438 26.550781 C 27.648438 26.300781 27.648438 26.101562 27.648438 25.851562 C 27.398438 25.800781 27.25 25.601562 27.148438 25.300781 C 27.050781 25.050781 26.949219 24.550781 26.800781 23.949219 C 26.648438 23.5 26.75 23.25 26.851562 23.148438 C 26.949219 23.050781 27.101562 22.898438 27.398438 22.851562 C 27.398438 22.800781 27.398438 22.75 27.398438 22.699219 C 27.300781 22.5 27.25 22.101562 27.25 22.050781 C 27.25 19.75 29.300781 17.898438 31.851562 17.898438 C 34.398438 17.898438 36.449219 19.75 36.449219 22.050781 C 36.449219 22.050781 36.398438 22.5 36.300781 22.699219 C 36.300781 22.699219 36.300781 22.75 36.300781 22.75 C 36.300781 22.75 36.300781 22.800781 36.300781 22.800781 C 36.601562 22.851562 36.851562 22.949219 36.949219 23.148438 C 37.050781 23.300781 37.148438 23.550781 37.050781 23.898438 L 37.050781 23.949219 C 36.898438 24.550781 36.800781 25 36.699219 25.25 C 36.601562 25.5 36.449219 25.699219 36.25 25.75 L 36.25 25.851562 C 36.25 26.101562 36.25 26.398438 36.25 26.648438 C 36.25 26.851562 36.148438 27.148438 36.050781 27.351562 C 35.648438 27.949219 34.699219 28.851562 33.800781 29.449219 C 33.800781 30 33.851562 30.148438 33.851562 30.199219 C 33.898438 30.300781 34 30.449219 34.148438 30.5 C 34.300781 30.550781 37.050781 31.449219 37.449219 31.648438 C 37.550781 31.699219 37.601562 31.699219 37.648438 31.75 C 37.699219 31.75 37.699219 31.800781 37.75 31.800781 C 38.75 32.101562 39 33.199219 39.101562 34.25 C 39.101562 34.300781 39.101562 34.351562 39.050781 34.398438 C 39.050781 34.5 39 34.5 38.949219 34.5 Z M 25.199219 34.101562 L 38.75 34.101562 C 38.601562 32.898438 38.300781 32.351562 37.648438 32.148438 C 37.601562 32.148438 37.550781 32.101562 37.5 32.101562 C 37.449219 32.050781 37.351562 32.050781 37.300781 32 C 36.851562 31.800781 34.050781 30.851562 34 30.851562 C 33.75 30.800781 33.550781 30.601562 33.449219 30.351562 C 33.351562 30.148438 33.351562 29.851562 33.351562 29.300781 C 33.351562 29.25 33.398438 29.199219 33.449219 29.148438 C 34.449219 28.5 35.351562 27.601562 35.699219 27.101562 C 35.75 27 35.851562 26.75 35.851562 26.601562 C 35.851562 26.351562 35.851562 26.050781 35.851562 25.800781 L 35.851562 25.550781 C 35.851562 25.449219 35.898438 25.398438 36 25.351562 C 36.148438 25.351562 36.25 25.300781 36.300781 25.050781 C 36.398438 24.800781 36.5 24.351562 36.648438 23.75 C 36.648438 23.699219 36.648438 23.699219 36.648438 23.648438 C 36.699219 23.5 36.699219 23.351562 36.601562 23.25 C 36.5 23.101562 36.300781 23.050781 36.050781 23.050781 C 36 23.050781 35.949219 23.050781 35.898438 23 C 35.851562 22.949219 35.851562 22.898438 35.851562 22.851562 C 35.851562 22.800781 35.851562 22.699219 35.851562 22.601562 C 35.851562 22.5 35.851562 22.398438 35.898438 22.351562 C 35.949219 22.25 36 22 36 21.851562 C 36 19.75 34.101562 18.050781 31.800781 18.050781 C 29.5 18.050781 27.601562 19.75 27.601562 21.851562 C 27.601562 22 27.699219 22.25 27.75 22.351562 C 27.75 22.351562 27.800781 22.398438 27.800781 22.449219 C 27.800781 22.601562 27.851562 22.75 27.851562 22.851562 C 27.851562 22.898438 27.851562 22.949219 27.800781 23 C 27.75 23.050781 27.699219 23.050781 27.648438 23.050781 C 27.449219 23.050781 27.25 23.101562 27.199219 23.199219 C 27.101562 23.300781 27.148438 23.5 27.199219 23.648438 C 27.199219 23.648438 27.199219 23.699219 27.199219 23.699219 C 27.351562 24.300781 27.449219 24.75 27.550781 25 C 27.648438 25.25 27.75 25.300781 27.898438 25.300781 C 28 25.300781 28.101562 25.398438 28.101562 25.5 C 28.101562 25.800781 28.101562 26.101562 28.101562 26.398438 C 28.101562 26.699219 28.199219 27 28.351562 27.25 C 28.601562 27.601562 29.449219 28.25 30.398438 28.851562 C 30.449219 28.898438 30.5 28.949219 30.5 29 C 30.449219 29.449219 30.449219 30 30.398438 30.148438 C 30.351562 30.449219 30.050781 30.648438 29.800781 30.699219 L 27 31.800781 C 26.75 31.851562 26.5 32 26.25 32.101562 C 25.75 32.398438 25.398438 33.050781 25.199219 34.101562 Z M 25.199219 34.101562 "/>
<path style=" stroke:none;fill-rule:nonzero;fill:rgb(31.764706%,17.254902%,16.862745%);fill-opacity:1;" d="M 31.898438 17 C 27.851562 17 26.398438 20.449219 27.601562 23.851562 C 27.648438 24 27.949219 24 27.949219 23.800781 C 28.101562 21.851562 29.050781 20.25 31.898438 21.050781 C 34.800781 20.25 35.699219 21.851562 35.851562 23.800781 C 35.851562 23.949219 36.148438 24 36.199219 23.851562 C 37.398438 20.449219 35.949219 17 31.898438 17 Z M 31.898438 17 "/>
</g>
</svg>
