<?xml version="1.0" encoding="UTF-8"?>
<svg xmlns="http://www.w3.org/2000/svg" xmlns:xlink="http://www.w3.org/1999/xlink" width="50px" height="50px" viewBox="0 0 50 50" version="1.1">
<defs>
<radialGradient id="radial0" gradientUnits="userSpaceOnUse" cx="32" cy="32" fx="32" fy="32" r="27.459" spreadMethod="reflect" gradientTransform="matrix(0.78125,0,0,0.78125,0,0)">
<stop offset="0" style="stop-color:rgb(93.72549%,86.27451%,69.411765%);stop-opacity:1;"/>
<stop offset="0" style="stop-color:rgb(93.72549%,86.27451%,69.411765%);stop-opacity:1;"/>
<stop offset="0.092" style="stop-color:rgb(94.901961%,87.843137%,72.54902%);stop-opacity:1;"/>
<stop offset="0.415" style="stop-color:rgb(97.647059%,92.54902%,81.176471%);stop-opacity:1;"/>
<stop offset="0.724" style="stop-color:rgb(99.215686%,95.686275%,86.27451%);stop-opacity:1;"/>
<stop offset="1" style="stop-color:rgb(100%,96.470588%,88.235294%);stop-opacity:1;"/>
</radialGradient>
<linearGradient id="linear0" gradientUnits="userSpaceOnUse" x1="30" y1="60.564" x2="30" y2="5.459" spreadMethod="reflect" gradientTransform="matrix(0.78125,0,0,0.78125,0,0)">
<stop offset="0" style="stop-color:rgb(25.882353%,74.901961%,92.54902%);stop-opacity:1;"/>
<stop offset="0.441" style="stop-color:rgb(36.862745%,80.784314%,94.901961%);stop-opacity:1;"/>
<stop offset="1" style="stop-color:rgb(53.333333%,89.411765%,98.823529%);stop-opacity:1;"/>
</linearGradient>
<linearGradient id="linear1" gradientUnits="userSpaceOnUse" x1="38.322" y1="57.201" x2="39.239" y2="39.659" spreadMethod="reflect" gradientTransform="matrix(0.78125,0,0,0.78125,0,0)">
<stop offset="0" style="stop-color:rgb(20.392157%,71.372549%,90.980392%);stop-opacity:1;"/>
<stop offset="1" style="stop-color:rgb(29.803922%,77.647059%,93.72549%);stop-opacity:1;"/>
</linearGradient>
<linearGradient id="linear2" gradientUnits="userSpaceOnUse" x1="31.906" y1="56.865" x2="32.823" y2="39.324" spreadMethod="reflect" gradientTransform="matrix(0.78125,0,0,0.78125,0,0)">
<stop offset="0" style="stop-color:rgb(20.392157%,71.372549%,90.980392%);stop-opacity:1;"/>
<stop offset="1" style="stop-color:rgb(29.803922%,77.647059%,93.72549%);stop-opacity:1;"/>
</linearGradient>
<linearGradient id="linear3" gradientUnits="userSpaceOnUse" x1="20" y1="58.605" x2="20" y2="5.84" spreadMethod="reflect" gradientTransform="matrix(0.78125,0,0,0.78125,0,0)">
<stop offset="0" style="stop-color:rgb(36.862745%,78.823529%,93.72549%);stop-opacity:1;"/>
<stop offset="0.495" style="stop-color:rgb(47.843137%,84.313725%,96.078431%);stop-opacity:1;"/>
<stop offset="1" style="stop-color:rgb(60.392157%,90.980392%,98.823529%);stop-opacity:1;"/>
</linearGradient>
<linearGradient id="linear4" gradientUnits="userSpaceOnUse" x1="-71.733" y1="-45" x2="-42.254" y2="-45" spreadMethod="reflect" gradientTransform="matrix(0.000000000000000048,-0.78125,0.78125,0.000000000000000048,67.1875,-17.1875)">
<stop offset="0" style="stop-color:rgb(5.098039%,27.843137%,63.137255%);stop-opacity:1;"/>
<stop offset="0.365" style="stop-color:rgb(7.45098%,37.254902%,72.941176%);stop-opacity:1;"/>
<stop offset="0.734" style="stop-color:rgb(9.019608%,43.921569%,80%);stop-opacity:1;"/>
<stop offset="1" style="stop-color:rgb(9.803922%,46.27451%,82.352941%);stop-opacity:1;"/>
</linearGradient>
</defs>
<g id="surface1197">
<path style=" stroke:none;fill-rule:nonzero;fill:url(#radial0);" d="M 47.265625 26.5625 L 44.601562 26.5625 C 43.847656 26.5625 43.148438 26.058594 43 25.320312 C 42.808594 24.339844 43.53125 23.480469 44.464844 23.4375 C 45.652344 23.390625 46.71875 22.558594 46.859375 21.378906 C 47.027344 19.957031 45.917969 18.75 44.53125 18.75 L 43.359375 18.75 C 41.855469 18.75 40.625 17.519531 40.625 16.015625 C 40.625 14.511719 41.855469 13.28125 43.359375 13.28125 L 43.984375 13.28125 C 45.464844 13.28125 46.792969 12.171875 46.871094 10.695312 C 46.953125 9.117188 45.699219 7.8125 44.140625 7.8125 L 14.0625 7.8125 L 14.0625 10.9375 L 4.453125 10.9375 C 2.972656 10.9375 1.644531 12.046875 1.566406 13.523438 C 1.484375 15.101562 2.738281 16.40625 4.296875 16.40625 L 5.078125 16.40625 C 6.15625 16.40625 7.03125 17.28125 7.03125 18.359375 C 7.03125 19.4375 6.15625 20.3125 5.078125 20.3125 L 2.824219 20.3125 C 1.519531 20.3125 0.328125 21.1875 0.0585938 22.464844 C -0.304688 24.21875 1.039062 25.78125 2.734375 25.78125 L 8.871094 25.78125 C 9.894531 25.78125 10.824219 26.515625 10.925781 27.53125 C 11.042969 28.703125 10.128906 29.6875 8.984375 29.6875 L 2.476562 29.6875 C 1.207031 29.6875 0.0703125 30.636719 0.00390625 31.90625 C -0.0664062 33.257812 1.007812 34.375 2.34375 34.375 L 4.605469 34.375 C 5.382812 34.375 6.105469 34.90625 6.230469 35.675781 C 6.386719 36.652344 5.636719 37.5 4.6875 37.5 L 4.039062 37.5 C 2.769531 37.5 1.632812 38.449219 1.566406 39.71875 C 1.496094 41.070312 2.570312 42.1875 3.90625 42.1875 L 37.5 42.1875 L 37.5 41.40625 L 45.195312 41.40625 C 46.433594 41.40625 47.542969 40.5 47.648438 39.265625 C 47.765625 37.875 46.667969 36.710938 45.300781 36.71875 C 44.5 36.722656 43.714844 36.378906 43.324219 35.679688 C 42.316406 33.867188 43.601562 32.03125 45.3125 32.03125 L 47.109375 32.03125 C 48.589844 32.03125 49.917969 30.921875 49.996094 29.445312 C 50.078125 27.867188 48.824219 26.5625 47.265625 26.5625 Z M 47.265625 26.5625 "/>
<path style=" stroke:none;fill-rule:nonzero;fill:url(#linear0);" d="M 33.59375 45.3125 L 13.28125 45.3125 C 10.691406 45.3125 8.59375 43.214844 8.59375 40.625 L 8.59375 9.375 C 8.59375 6.785156 10.691406 4.6875 13.28125 4.6875 L 33.59375 4.6875 C 36.183594 4.6875 38.28125 6.785156 38.28125 9.375 L 38.28125 40.625 C 38.28125 43.214844 36.183594 45.3125 33.59375 45.3125 Z M 33.59375 45.3125 "/>
<path style=" stroke:none;fill-rule:nonzero;fill:url(#linear1);" d="M 28.90625 35.546875 C 28.90625 36.625 29.78125 37.5 30.859375 37.5 L 32.421875 37.5 C 33.5 37.5 34.375 38.375 34.375 39.453125 C 34.375 40.53125 33.5 41.40625 32.421875 41.40625 L 23.828125 41.40625 C 22.75 41.40625 21.875 42.28125 21.875 43.359375 C 21.875 44.4375 22.75 45.3125 23.828125 45.3125 L 33.59375 45.3125 C 36.183594 45.3125 38.28125 43.214844 38.28125 40.625 L 38.28125 33.59375 L 30.859375 33.59375 C 29.78125 33.59375 28.90625 34.46875 28.90625 35.546875 Z M 28.90625 35.546875 "/>
<path style=" stroke:none;fill-rule:nonzero;fill:url(#linear2);" d="M 25.390625 33.59375 C 24.3125 33.59375 23.4375 34.46875 23.4375 35.546875 C 23.4375 36.625 24.3125 37.5 25.390625 37.5 C 26.46875 37.5 27.34375 36.625 27.34375 35.546875 C 27.34375 34.46875 26.46875 33.59375 25.390625 33.59375 Z M 25.390625 33.59375 "/>
<path style=" stroke:none;fill-rule:nonzero;fill:url(#linear3);" d="M 15.234375 16.40625 L 8.59375 16.40625 L 8.59375 9.375 C 8.59375 6.785156 10.691406 4.6875 13.28125 4.6875 L 18.359375 4.6875 C 19.4375 4.6875 20.3125 5.5625 20.3125 6.640625 C 20.3125 7.71875 19.4375 8.59375 18.359375 8.59375 L 14.453125 8.59375 C 13.375 8.59375 12.5 9.46875 12.5 10.546875 C 12.5 11.625 13.375 12.5 14.453125 12.5 L 15.234375 12.5 C 16.3125 12.5 17.1875 13.375 17.1875 14.453125 C 17.1875 15.53125 16.3125 16.40625 15.234375 16.40625 Z M 21.09375 13.28125 C 20.230469 13.28125 19.53125 13.980469 19.53125 14.84375 C 19.53125 15.707031 20.230469 16.40625 21.09375 16.40625 C 21.957031 16.40625 22.65625 15.707031 22.65625 14.84375 C 22.65625 13.980469 21.957031 13.28125 21.09375 13.28125 Z M 21.09375 13.28125 "/>
<path style=" stroke:none;fill-rule:nonzero;fill:url(#linear4);" d="M 34.375 17.273438 L 34.375 22.65625 L 21.09375 22.65625 C 19.800781 22.65625 18.75 23.707031 18.75 25 C 18.75 26.292969 19.800781 27.34375 21.09375 27.34375 L 34.375 27.34375 L 34.375 32.726562 C 34.375 34.164062 35.996094 34.910156 36.992188 33.929688 L 44.820312 26.203125 C 45.476562 25.550781 45.476562 24.449219 44.820312 23.796875 L 36.992188 16.070312 C 35.996094 15.089844 34.375 15.835938 34.375 17.273438 Z M 34.375 17.273438 "/>
</g>
</svg>
