<?xml version="1.0" encoding="UTF-8"?>
<svg xmlns="http://www.w3.org/2000/svg" xmlns:xlink="http://www.w3.org/1999/xlink" width="50px" height="50px" viewBox="0 0 50 50" version="1.1">
<g id="surface1167">
<path style=" stroke:none;fill-rule:nonzero;fill:rgb(97.254902%,89.803922%,35.686275%);fill-opacity:1;" d="M 34.828125 40.980469 L 15.328125 40.980469 C 12.027344 40.980469 9.328125 38.28125 9.328125 34.980469 L 9.328125 15.480469 C 9.328125 12.179688 12.027344 9.480469 15.328125 9.480469 L 34.828125 9.480469 C 38.128906 9.480469 40.828125 12.179688 40.828125 15.480469 L 40.828125 34.980469 C 40.828125 38.28125 38.128906 40.980469 34.828125 40.980469 Z M 34.828125 40.980469 "/>
<path style=" stroke:none;fill-rule:nonzero;fill:rgb(12.156863%,12.941176%,16.862745%);fill-opacity:1;" d="M 34.828125 41.480469 L 15.328125 41.480469 C 11.742188 41.480469 8.828125 38.566406 8.828125 34.980469 L 8.828125 15.480469 C 8.828125 11.898438 11.742188 8.980469 15.328125 8.980469 L 34.828125 8.980469 C 38.410156 8.980469 41.328125 11.898438 41.328125 15.480469 L 41.328125 34.980469 C 41.328125 38.566406 38.410156 41.480469 34.828125 41.480469 Z M 15.328125 9.980469 C 12.292969 9.980469 9.828125 12.449219 9.828125 15.480469 L 9.828125 34.980469 C 9.828125 38.011719 12.292969 40.480469 15.328125 40.480469 L 34.828125 40.480469 C 37.859375 40.480469 40.328125 38.011719 40.328125 34.980469 L 40.328125 15.480469 C 40.328125 12.449219 37.859375 9.980469 34.828125 9.980469 Z M 15.328125 9.980469 "/>
<path style=" stroke:none;fill-rule:nonzero;fill:rgb(97.254902%,89.803922%,35.686275%);fill-opacity:1;" d="M 38.578125 24.230469 L 38.578125 33.5625 C 38.578125 36.40625 36.25 38.730469 33.410156 38.730469 L 16.746094 38.730469 C 13.902344 38.730469 11.578125 36.40625 11.578125 33.5625 L 11.578125 16.898438 C 11.578125 14.054688 13.902344 11.730469 16.746094 11.730469 L 33.578125 11.730469 "/>
<path style=" stroke:none;fill-rule:nonzero;fill:rgb(12.156863%,12.941176%,16.862745%);fill-opacity:1;" d="M 33.410156 38.980469 L 16.746094 38.980469 C 13.757812 38.980469 11.328125 36.550781 11.328125 33.5625 L 11.328125 16.898438 C 11.328125 13.910156 13.757812 11.480469 16.746094 11.480469 L 33.578125 11.480469 C 33.714844 11.480469 33.828125 11.59375 33.828125 11.730469 C 33.828125 11.867188 33.714844 11.980469 33.578125 11.980469 L 16.746094 11.980469 C 14.03125 11.980469 11.828125 14.1875 11.828125 16.898438 L 11.828125 33.5625 C 11.828125 36.273438 14.03125 38.480469 16.746094 38.480469 L 33.40625 38.480469 C 36.121094 38.480469 38.328125 36.273438 38.328125 33.5625 L 38.328125 24.230469 C 38.328125 24.09375 38.4375 23.980469 38.578125 23.980469 C 38.714844 23.980469 38.828125 24.09375 38.828125 24.230469 L 38.828125 33.5625 C 38.828125 36.550781 36.394531 38.980469 33.410156 38.980469 Z M 38.578125 22.980469 C 38.4375 22.980469 38.328125 22.867188 38.328125 22.730469 L 38.328125 20.730469 C 38.328125 20.59375 38.4375 20.480469 38.578125 20.480469 C 38.714844 20.480469 38.828125 20.59375 38.828125 20.730469 L 38.828125 22.730469 C 38.828125 22.867188 38.714844 22.980469 38.578125 22.980469 Z M 38.578125 19.980469 C 38.4375 19.980469 38.328125 19.867188 38.328125 19.730469 L 38.328125 18.730469 C 38.328125 18.59375 38.4375 18.480469 38.578125 18.480469 C 38.714844 18.480469 38.828125 18.59375 38.828125 18.730469 L 38.828125 19.730469 C 38.828125 19.867188 38.714844 19.980469 38.578125 19.980469 Z M 38.578125 19.980469 "/>
<path style=" stroke:none;fill-rule:nonzero;fill:rgb(99.215686%,98.823529%,93.333333%);fill-opacity:1;" d="M 23.890625 27.949219 C 23.875 27.875 23.867188 27.800781 23.867188 27.726562 C 23.867188 27.652344 23.867188 27.574219 23.867188 27.5 C 23.867188 26.917969 23.945312 26.398438 24.101562 25.941406 C 24.261719 25.488281 24.453125 25.070312 24.6875 24.699219 C 24.917969 24.324219 25.171875 23.972656 25.449219 23.644531 C 25.726562 23.316406 25.980469 22.984375 26.210938 22.644531 C 26.441406 22.308594 26.636719 21.949219 26.792969 21.570312 C 26.949219 21.1875 27.03125 20.757812 27.03125 20.28125 C 27.03125 19.59375 26.820312 19.015625 26.402344 18.554688 C 25.984375 18.089844 25.363281 17.859375 24.539062 17.859375 C 24.03125 17.859375 23.609375 17.898438 23.273438 17.972656 C 22.9375 18.046875 22.65625 18.140625 22.433594 18.25 C 22.207031 18.363281 22.027344 18.496094 21.894531 18.644531 C 21.761719 18.792969 21.640625 18.945312 21.535156 19.09375 C 21.894531 19.109375 22.195312 19.246094 22.445312 19.507812 C 22.691406 19.769531 22.8125 20.101562 22.8125 20.503906 C 22.8125 20.953125 22.683594 21.34375 22.421875 21.671875 C 22.160156 22 21.730469 22.164062 21.132812 22.164062 C 20.652344 22.164062 20.269531 21.996094 19.976562 21.660156 C 19.683594 21.324219 19.539062 20.902344 19.539062 20.394531 C 19.539062 19.976562 19.625 19.535156 19.796875 19.070312 C 19.96875 18.609375 20.265625 18.175781 20.691406 17.78125 C 21.117188 17.386719 21.679688 17.054688 22.382812 16.792969 C 23.082031 16.53125 23.96875 16.402344 25.042969 16.402344 C 25.789062 16.402344 26.492188 16.457031 27.148438 16.570312 C 27.804688 16.683594 28.378906 16.882812 28.871094 17.175781 C 29.363281 17.46875 29.75 17.855469 30.035156 18.34375 C 30.316406 18.828125 30.460938 19.4375 30.460938 20.171875 C 30.460938 20.84375 30.339844 21.414062 30.101562 21.886719 C 29.867188 22.355469 29.566406 22.773438 29.203125 23.140625 C 28.835938 23.507812 28.445312 23.84375 28.019531 24.152344 C 27.597656 24.457031 27.191406 24.785156 26.804688 25.136719 C 26.414062 25.488281 26.082031 25.886719 25.808594 26.335938 C 25.53125 26.785156 25.363281 27.324219 25.300781 27.949219 Z M 26.46875 31.828125 C 26.46875 32.320312 26.296875 32.742188 25.953125 33.085938 C 25.609375 33.429688 25.191406 33.601562 24.699219 33.601562 C 24.21875 33.601562 23.804688 33.429688 23.453125 33.085938 C 23.101562 32.742188 22.925781 32.320312 22.925781 31.828125 C 22.925781 31.351562 23.101562 30.933594 23.453125 30.585938 C 23.804688 30.234375 24.21875 30.058594 24.699219 30.058594 C 25.191406 30.058594 25.609375 30.234375 25.953125 30.585938 C 26.296875 30.933594 26.46875 31.351562 26.46875 31.828125 Z M 26.46875 31.828125 "/>
<path style=" stroke:none;fill-rule:nonzero;fill:rgb(12.156863%,12.941176%,16.862745%);fill-opacity:1;" d="M 24.695312 33.851562 C 24.152344 33.851562 23.675781 33.652344 23.277344 33.261719 C 22.878906 32.871094 22.675781 32.390625 22.675781 31.828125 C 22.675781 31.285156 22.878906 30.804688 23.277344 30.40625 C 23.675781 30.007812 24.152344 29.804688 24.695312 29.804688 C 25.257812 29.804688 25.738281 30.007812 26.132812 30.410156 C 26.519531 30.808594 26.71875 31.285156 26.71875 31.828125 C 26.71875 32.386719 26.519531 32.871094 26.128906 33.261719 C 25.738281 33.652344 25.257812 33.851562 24.695312 33.851562 Z M 24.695312 30.308594 C 24.285156 30.308594 23.933594 30.457031 23.628906 30.761719 C 23.324219 31.066406 23.175781 31.414062 23.175781 31.828125 C 23.175781 32.257812 23.324219 32.609375 23.628906 32.90625 C 23.933594 33.203125 24.28125 33.351562 24.695312 33.351562 C 25.125 33.351562 25.476562 33.207031 25.777344 32.90625 C 26.074219 32.609375 26.21875 32.257812 26.21875 31.828125 C 26.21875 31.414062 26.074219 31.066406 25.773438 30.757812 C 25.476562 30.453125 25.125 30.308594 24.695312 30.308594 Z M 25.304688 28.199219 L 23.890625 28.199219 C 23.769531 28.199219 23.667969 28.117188 23.644531 28 C 23.625 27.90625 23.617188 27.816406 23.617188 27.726562 L 23.617188 27.5 C 23.617188 26.894531 23.699219 26.34375 23.867188 25.859375 C 24.03125 25.386719 24.234375 24.953125 24.472656 24.566406 C 24.710938 24.183594 24.972656 23.820312 25.257812 23.484375 C 25.523438 23.164062 25.777344 22.835938 26.003906 22.503906 C 26.226562 22.183594 26.414062 21.835938 26.5625 21.472656 C 26.707031 21.125 26.777344 20.722656 26.777344 20.28125 C 26.777344 19.652344 26.59375 19.140625 26.214844 18.71875 C 25.847656 18.3125 25.285156 18.109375 24.539062 18.109375 C 24.054688 18.109375 23.644531 18.144531 23.328125 18.214844 C 23.011719 18.285156 22.746094 18.371094 22.542969 18.472656 C 22.347656 18.570312 22.191406 18.683594 22.078125 18.808594 C 22.046875 18.847656 22.015625 18.882812 21.984375 18.917969 C 22.226562 19 22.441406 19.136719 22.625 19.335938 C 22.917969 19.640625 23.0625 20.035156 23.0625 20.503906 C 23.0625 21.007812 22.914062 21.453125 22.617188 21.824219 C 22.304688 22.214844 21.804688 22.414062 21.132812 22.414062 C 20.578125 22.414062 20.128906 22.214844 19.789062 21.820312 C 19.457031 21.441406 19.289062 20.960938 19.289062 20.390625 C 19.289062 19.945312 19.382812 19.46875 19.5625 18.980469 C 19.746094 18.484375 20.070312 18.015625 20.519531 17.597656 C 20.96875 17.179688 21.566406 16.828125 22.292969 16.558594 C 23.019531 16.285156 23.945312 16.148438 25.042969 16.148438 C 25.800781 16.148438 26.523438 16.207031 27.191406 16.320312 C 27.871094 16.4375 28.480469 16.652344 28.996094 16.957031 C 29.523438 17.269531 29.945312 17.691406 30.25 18.214844 C 30.554688 18.734375 30.710938 19.394531 30.710938 20.167969 C 30.710938 20.875 30.582031 21.488281 30.324219 21.996094 C 30.078125 22.484375 29.757812 22.929688 29.378906 23.3125 C 29.007812 23.6875 28.597656 24.035156 28.164062 24.351562 C 27.753906 24.648438 27.351562 24.976562 26.96875 25.320312 C 26.601562 25.652344 26.28125 26.039062 26.019531 26.464844 C 25.761719 26.878906 25.605469 27.386719 25.550781 27.972656 C 25.539062 28.101562 25.433594 28.199219 25.304688 28.199219 Z M 24.117188 27.699219 L 25.082031 27.699219 C 25.160156 27.128906 25.332031 26.628906 25.59375 26.203125 C 25.882812 25.738281 26.234375 25.316406 26.636719 24.949219 C 27.03125 24.59375 27.445312 24.253906 27.875 23.945312 C 28.285156 23.648438 28.671875 23.316406 29.023438 22.964844 C 29.367188 22.617188 29.65625 22.214844 29.882812 21.769531 C 30.101562 21.335938 30.210938 20.796875 30.210938 20.167969 C 30.210938 19.484375 30.078125 18.910156 29.820312 18.464844 C 29.558594 18.019531 29.195312 17.65625 28.746094 17.390625 C 28.28125 17.113281 27.730469 16.921875 27.105469 16.816406 C 26.46875 16.707031 25.773438 16.648438 25.046875 16.648438 C 24.007812 16.648438 23.140625 16.777344 22.46875 17.027344 C 21.804688 17.277344 21.261719 17.589844 20.863281 17.960938 C 20.46875 18.328125 20.1875 18.730469 20.03125 19.15625 C 19.871094 19.589844 19.789062 20.003906 19.789062 20.390625 C 19.789062 20.84375 19.914062 21.203125 20.164062 21.496094 C 20.410156 21.777344 20.726562 21.914062 21.132812 21.914062 C 21.65625 21.914062 22.011719 21.78125 22.226562 21.515625 C 22.453125 21.226562 22.5625 20.898438 22.5625 20.503906 C 22.5625 20.164062 22.464844 19.894531 22.261719 19.679688 C 22.058594 19.464844 21.820312 19.351562 21.523438 19.339844 C 21.433594 19.335938 21.351562 19.285156 21.3125 19.203125 C 21.269531 19.121094 21.277344 19.023438 21.332031 18.949219 C 21.441406 18.792969 21.566406 18.632812 21.710938 18.476562 C 21.863281 18.304688 22.070312 18.152344 22.320312 18.027344 C 22.5625 17.90625 22.863281 17.804688 23.21875 17.726562 C 23.574219 17.648438 24.019531 17.609375 24.539062 17.609375 C 25.433594 17.609375 26.121094 17.871094 26.585938 18.386719 C 27.046875 18.894531 27.28125 19.53125 27.28125 20.28125 C 27.28125 20.789062 27.195312 21.253906 27.027344 21.664062 C 26.863281 22.058594 26.660156 22.4375 26.417969 22.789062 C 26.179688 23.132812 25.917969 23.476562 25.640625 23.804688 C 25.375 24.125 25.125 24.46875 24.898438 24.832031 C 24.679688 25.183594 24.492188 25.585938 24.339844 26.023438 C 24.191406 26.453125 24.117188 26.949219 24.117188 27.503906 Z M 24.117188 27.699219 "/>
</g>
</svg>
